<mxfile host="Electron" agent="Mozilla/5.0 (Windows NT 10.0; Win64; x64) AppleWebKit/537.36 (KHTML, like Gecko) draw.io/26.0.16 Chrome/132.0.6834.196 Electron/34.2.0 Safari/537.36" version="26.0.16">
  <diagram id="gQ5eeGSMzcSydLta9kQ4" name="Page-1">
    <mxGraphModel dx="1290" dy="669" grid="1" gridSize="10" guides="1" tooltips="1" connect="1" arrows="1" fold="1" page="1" pageScale="1" pageWidth="827" pageHeight="1169" math="0" shadow="0">
      <root>
        <mxCell id="0" />
        <mxCell id="1" parent="0" />
        <mxCell id="PQfR5SoeLuZi49ZC78cG-1" value="" style="rounded=0;whiteSpace=wrap;html=1;fillColor=#f5f5f5;strokeColor=#666666;fontColor=#333333;" parent="1" vertex="1">
          <mxGeometry x="260" y="200" width="420" height="480" as="geometry" />
        </mxCell>
        <mxCell id="PQfR5SoeLuZi49ZC78cG-2" value="&lt;b&gt;&lt;font style=&quot;font-size: 13px&quot;&gt;3D Cartography&lt;/font&gt;&lt;/b&gt;" style="text;html=1;strokeColor=none;fillColor=none;align=center;verticalAlign=middle;whiteSpace=wrap;rounded=0;" parent="1" vertex="1">
          <mxGeometry x="415" y="210" width="110" height="20" as="geometry" />
        </mxCell>
        <mxCell id="PQfR5SoeLuZi49ZC78cG-3" value="" style="shape=image;verticalLabelPosition=bottom;labelBackgroundColor=#ffffff;verticalAlign=top;aspect=fixed;imageAspect=0;image=https://d1eh9yux7w8iql.cloudfront.net/product_images/1563199365.32.jpg;" parent="1" vertex="1">
          <mxGeometry x="100" y="240" width="120" height="120" as="geometry" />
        </mxCell>
        <mxCell id="PQfR5SoeLuZi49ZC78cG-4" value="&lt;b style=&quot;text-wrap-mode: nowrap;&quot;&gt;Computing support&lt;br&gt;for processing&lt;/b&gt;" style="text;html=1;strokeColor=none;fillColor=none;align=center;verticalAlign=middle;whiteSpace=wrap;rounded=0;" parent="1" vertex="1">
          <mxGeometry x="90" y="370" width="140" height="20" as="geometry" />
        </mxCell>
        <mxCell id="PQfR5SoeLuZi49ZC78cG-5" value="" style="shape=image;verticalLabelPosition=bottom;labelBackgroundColor=#ffffff;verticalAlign=top;aspect=fixed;imageAspect=0;image=https://i.pinimg.com/originals/8b/b0/2d/8bb02d7de6c667925e29baee21324fa5.jpg;" parent="1" vertex="1">
          <mxGeometry x="95" y="440" width="130" height="130" as="geometry" />
        </mxCell>
        <mxCell id="PQfR5SoeLuZi49ZC78cG-6" value="&lt;b style=&quot;font-size: 13px;&quot;&gt;Operating personnel&lt;/b&gt;" style="text;html=1;strokeColor=none;fillColor=none;align=center;verticalAlign=middle;whiteSpace=wrap;rounded=0;" parent="1" vertex="1">
          <mxGeometry x="90" y="570" width="140" height="20" as="geometry" />
        </mxCell>
        <mxCell id="PQfR5SoeLuZi49ZC78cG-7" value="Perform complex&lt;div&gt;mathematical calculations&lt;/div&gt;" style="ellipse;whiteSpace=wrap;html=1;" parent="1" vertex="1">
          <mxGeometry x="300" y="310" width="180" height="70" as="geometry" />
        </mxCell>
        <mxCell id="PQfR5SoeLuZi49ZC78cG-8" value="Explore the 3D rendering" style="ellipse;whiteSpace=wrap;html=1;" parent="1" vertex="1">
          <mxGeometry x="320" y="455" width="120" height="50" as="geometry" />
        </mxCell>
        <mxCell id="PQfR5SoeLuZi49ZC78cG-9" value="" style="endArrow=none;html=1;entryX=0;entryY=0.5;entryDx=0;entryDy=0;" parent="1" target="PQfR5SoeLuZi49ZC78cG-8" edge="1">
          <mxGeometry width="50" height="50" relative="1" as="geometry">
            <mxPoint x="230" y="505" as="sourcePoint" />
            <mxPoint x="520" y="440" as="targetPoint" />
          </mxGeometry>
        </mxCell>
        <mxCell id="PQfR5SoeLuZi49ZC78cG-11" value="" style="endArrow=none;html=1;entryX=0;entryY=0.5;entryDx=0;entryDy=0;" parent="1" target="PQfR5SoeLuZi49ZC78cG-7" edge="1">
          <mxGeometry width="50" height="50" relative="1" as="geometry">
            <mxPoint x="230" y="340" as="sourcePoint" />
            <mxPoint x="520" y="440" as="targetPoint" />
          </mxGeometry>
        </mxCell>
        <mxCell id="PQfR5SoeLuZi49ZC78cG-12" value="" style="endArrow=none;html=1;exitX=0;exitY=1;exitDx=0;exitDy=0;" parent="1" source="PQfR5SoeLuZi49ZC78cG-7" edge="1">
          <mxGeometry width="50" height="50" relative="1" as="geometry">
            <mxPoint x="470" y="490" as="sourcePoint" />
            <mxPoint x="230" y="480" as="targetPoint" />
          </mxGeometry>
        </mxCell>
        <mxCell id="PQfR5SoeLuZi49ZC78cG-13" value="" style="shape=image;verticalLabelPosition=bottom;labelBackgroundColor=#ffffff;verticalAlign=top;aspect=fixed;imageAspect=0;image=data:image/png,iVBORw0KGgoAAAANSUhEUgAAAJwAAAChCAYAAAAyXNY+AAAgAElEQVR4AeydB5RdR5WueW8CttQ5x5s659xKrdjqoJxzlixZkq1oOQjbOMtBxrJxztgytgAHchgwtnEimTQzDJMDA5NYwwRgYNL/1nfavyhdWsFgBt4a37Vq1Tl16tSp2vXV3rvqhPs2vfV7SwL/gxJ42//gtd661FsS0P84cP/93/8twi/6czlvRlm/aF3eOv/MJfBLBw4g/vM//1P/9V//ddJa/eQnP9G//uu/6u///u/1ne98R3/9138dhb/927/V97//ff3whz+MyhitAMql/LcAHE06v35pv1Tg0rXPv//7v+u73/2uXn75ZT388MO6/PLLtWnTJi1YsEAzZ87UhAkT1N3dfTywP336dM2aNUvLly/X7t27dcstt+h3fud3IjABLfwZujDtre1fLwn8wsC5kx2nNw8N9alPfUrveMc7tGTJkgim0tJSZWVlKS8vT/n5+VEoKChQSUlJFMrKykQe7xMXFRWpsLAwylteXq6enh6tWLFC119/vb7+9a/rP/7jP0649Mnqc0Kmt3b+xyXwpgCHWQs7HBMIZOedd16ktYqLiyPAgAZ4AIpQWVmpWCymeDyuVCqlZDIZxYlEItquqqqK9jlGHudl21ACan19fQTzHXfcEWk+S9Gm1vtvxb96CfzCwIVN+N73vqe77rpLw8PDArKMjIxIiwFHRUVFBBgwAVJjY6M6OjpUV1cX7QMbAajIS1xTUxMFzGxXV5fa2tp+Jj8wUibXAOiJEyfqpptuEv7fW79fPwn8XMChOdBongj86Ec/0j333BNps8zMTOXm5kYmEdMHPGik2traSBOFmorjaCjy5+TkRIFtB9IwuwTMKRACF2UBYEtLy3EAgRhArQ0HBgZ07Nix4xKnztQXU/vW71cngZ8bOHfcCy+8oDlz5kRQAIohAzQ6H3MHKGg8AAJIQnZ29nH/jfMMVhjj3wEkMfnRmJyL/4c2o/yGhgZ1dnaqubk5AhEYSauuro7iffv26dvf/nYkYQaJ6/2rE/n/7iu/IeBCrYbGuPHGGyONAxSYNGAj2BdjG8jGjBmjsWPHHocl1FzWZsSkex/wDCLpAEcANvadRj60HpBhpgGO0NTUpNbW1mibWfBXvvKVqKfRctbM/7u7/lfT+jcEHMsa/P7pn/5J55xzTqR5mE0aNCYBaBYAAIQQNDSToQMWjqO5iPPyRmaqnrGGMcfJD2jWbiF0BpU81AXogA3Nitaz2e3v79dLL70U1T8cOL8asf/vveopgfPSgmPExOIsa2KAYAcf7cY2Jo5ZKGAAGyYQyGwKiYHF5nTEXGIyC5SXRwC+EfM6Ah1abkTrWbtxvssAMgeDR13QdkDHhMSaD/+ONb3XXnst6u23tNyvBvpTAkeVgA3zye9f/uVforUvOhkthp+GdgM0gCMd2KzNrOEMHvBZOwEUE4GR9bViFRQUve6vjfhsHC8oKIwgzM3N+xkNF4JncwuwnAf0aFqgAzi0nc3tokWL9Hd/93e/Gmm/ddXT30v1zI54z549EQDMNAENE8Y2ptSQGS5iQqjprO0AhEkE2qikhAXen8bFJaUqLCpWYWGxiotLVVRUEm1zDtcIQUvfBjg0ndf7PHFA01nbMZu96qqr3ur6X5EETqnhQu3G+hraA60GYMQ2qYbNGi09BjTDNnZshrKzc1RWxpJJpcrLWXeLq6IciGNRKCutVFlZpcrLKqN0tgEJgA2d4xA6m1dMNUBb0xk2tB3b7e3tx00rcqed/7/+XHfi9G2nOf51aONJgQsr+aUvfSkyoXQgsKGZAI4ACABmyM4++2wRwjQfi6CL1unyVVYeUyyeUmVlUrF4lWKxKlXGiFOqJFQ6JFVeHldxcckJZhX4DBsxGhDgqA8B4DDZ1BXIMKmYVqCjDbt27Yo6KGznr0OHuA7Uy783s44u980s0/U8k/iUwFHAj3/848hvo0PRaJhSA0fH0tmABFTpsIWgjRkzMnnIzs5TYVGpyiviI6DFqxRPVCsWr1YF0CWqVZmoUUW8SuWVqSitPJaKtKGvxzVDDedt6kgeTCuwMUDC9TqAw69jAjFu3Dj96Z/+aSQjd8KZCOzXIQ99gh/6rW99S1/84hf13HPP6ZOf/KQ++tGPRuFjH/uYPvOZz+jVV1/V7//+70dP3nC7cbTf/zR4JwXOsziezKDzbEING53pjkbbGDprNuAjzSFj7FhlZ2cpN69QxZhLtFh8BK7KRJ0IFYCWqHkduGqVx6pUER+JK2PxaFJhX45rZ2aOaDZrulDLAR11xLwySFibQ8vZrNKeRx55JOqDXxfgkDkTtLA+LOH84R/+kT7xiU9Etw0PHDiglStXanBgILqz09HRHi39sATU3NyklpaRpSCWg1gQHz9+vLjrsmLFSh08eFDvec97IkD/4i/+4mf4s7/+MwfexITTAscNeLQG2i00p9Y2hs1ghZouIwPgxmjM2LPFdmZWlnILilVakVRFvFaxZL0qkw2qSDSqMtmoylS9YqlaxV8PsePw1agynlJJWYVycvM1NoM1vUxlZjCR+NnJBOAR0G7hBAIN5wBwF1544ZsoyjdeVAhWeDYd/41vfENHjx7Vueeeq76+vmgRG9egqrpa1akq1VZXq762RvX13DJk+efE0NjI7Hwk1NbWRVq9tqZGTU2N0RM7/f0zokng+973Pv3hH/7hCZD/MrXeSYFDADwIyQ1zNIUnCGgLgoELQbN2M3THj40do7EZWcrMzlVBaUKl8TqVJxsiyGKpBhHiVfWKVdUrUdOgeHW9EtX1iiXrVJkKtF+ySgXFpRqbiUnNUGbGGGUTv74U4xjY0HpeImE2zYyVDjNwtIfF65N1egjAL2Ob6wIWwb8f/OAHkWn0UzYjGhk3oFGNTfigDaqtrX89AFhjtLjd1t6ujs5OdXZ2RVqNSREar7GR5SDy10ShvqFOBGBsbm6JND6acOrUqdq3b29khkPT6/vPYR1d1583PiVwzz777AlaDa1AoANx0NP9txA4tkeAy9DZYzI1Zmy2cvKKVVpZpfJErRJVDUrWtCpV16ZEbatiNU1K1DQqUdv0OniNStY2K1nTpGR1UxRHEKaqVcAEgmWSrAxlZf905mrT6phBQV1xA/DbgM3rcQC3atWqEx6r+nmF+POcRydiLvmxvvnkk09q2bJl0QCnngBj819bw33herW3d6ijo0udXT2aMHGipk6brimTp2rC+Inq6e5VV2e3ujq6ori7q1uTxo/XpIkT1NPdo9bWNjU0Nqm+oVm1dY2qq+NWYLNaWtvV1NQcDUae3lm/fr0+/OEP69/+7d+iuhm6n6eNo51zSuAef/zx4/4bWg3YMKt0ojsVqDwrdQxsNrVj8OMyspWdW6iSsrgSyVolq+pUU9ugOkJNjRpqa9TaUKee9lb1dLSpp6NdvZ0joaO5SR1NjWptaFAbt63qaxWrKI/qlZWTp7HZIxMX6mPNFmo6TCp1pxN9nxVNB3A8dPDP//zPx+Xyy9Z2NlXhdZ5//vkIfABjQjOimUZm1NQTTdTS1q7Ori51dnSopblJPd0d6ps0Tv390zR79rAWzJurJYsXafmypVqxfFm0vWjBfM2fPVuDM2dqcl+fxo+foIkTJ2ly39QIztaWNrU0t0RaE03Jtbn3DORoyK1bt+oLX/jCcdkwQFz/44k/x8Ypgbv99tujTrRmc4yJpXPpWGs1z1ANHceAEfByXl+mKC+vVDIeU3d7q2ZMmaxF82Zr07qVOrBru6665AJdc+XluurKK3TttVfr6quv1BXvvFyXXXZQV1x2UJfs361tG1Zp2fxZmjq+S3WpmEqLCpSfl6+c7J/e3Dd0AEgdAI7FaToPs0pA2zFw5s2bp2uuuUZoct9NQYYWbAjGzyHbE06hLK7h+9E8O3jddddFJpBONmjUL3z4gIESTyTV3NKiWcND2rljm44cOayjjz2kx48d1RPvP6ZjH3ifHn/fE1F477HHo/jY+5/QY+99jx557CE98NA9uunw9dq3f5c2blijoYEZam9rVXdnh7q7gLhZ9a/fkaEergszeR7p96BEI9MGy+eEBp7hzimBu/nmmyPTiYbw7JRtOhFzBUwjpnOMzjrrrOPwsbibkZEZHc/OylBhQa5SiUpN6OnUxrUrdemlF+uK667R4bvv1aG77tf+696l7Zcf0jmX3aDNl92ojZfdoI2X36hN0f71OveKG3TgusO69tbbdcOtt+odl71Du8/foXmzBtTWWK+K8pH1QMy8B4K1HHXl1huQEQwdEA4NDam3tzca2Tt37tSnP/3pX9ptLzrJvhBLFWvWrIm0rrUKkNns0+HcOgQ27v9ecvFFeuC+e3X06CN66KEHdc2hQ9p94IC27dmjzbv2aO25O7Vs45bjYfmmc7Rqy1Zt2L5d5+w6T/suvUS333+3nv7w03ryyWN65OH7ddmlF2v+vFnq7mxTW1trpNW4HgOTAeBBwD7vnfzxH/9xhFQ4MM+QsROynRI47i7QiQYOzeZtlh3o1LPPHln0BbwR7XZWBFtWZqby83KUjJdr+tSJ2rhupXafv107L75Ua/Ye1PK9l2ru7svVf/4Vmrnveg0euFmDB27UzAsIN2nm/hvVv++QZuy5TtN3Xa1p512hKVsu0owN52t47RYtWbdRW7Zu1aYN67Ro4Xx1dLartLREOTnMUEe0G2t/AIfQ/Lg6MY9PAR4TIvYRNJ3NPlrvne98Z+S8/8mf/En01tgJEjvJzmij3mkhbCyiDw4ORnUCLNeNmOtTD+rHI1Xvete7oqWbGw5dpyWLF2tSX596J/ZpxtyFWrxpq5ZvO1/Lt+3Syu37tHL7Xq04d49W79yvVTv2adX2vVp17h4t27JDSzefq4VrN2rZ+o1atXaTduw8Tw/cf6eeeeqYbrv1sObNnR3JAMga8fNeXyDHzDKpIH3u3Ln66le/GrUe6KzpTiKOkyafEjiemGUNzpDhuxHQDiMr/znR8gQajeWPsWPPUkbmWcrKGqPK0iJN7evV8hWLtWrtOvXPW6KJi1apd/VOjd94oWbuulazL3yXZh+8TbMO3qLZFx3W8P5DGtxzrWbuukb951+rmbsPaWjvDRrYc0iTd1+jCTuuUNeGC9W0ZKtSU2ersqFd9XVNGh4c0NLFCzQ4OF0N9dUqzM9VTna2xozNiIBiPQrh0akENB4ahLbgJtDJpHtks+/Z2+LFi7Vt27boZZ0PfOAD0S2xP//zP49ABKRT/QyatQIdNmPGjOha1ibUxdADGo9R8WIQT1Bv2bRZbS2tqqiIKVVdp+6JkzV76XJtPH+3zr3gIp174GJt2XtAm3bv1/qdu7XhvD1at31XFDadt0dbdu/V1r37tf2CC7Xjwot13iWXas2OXZo8NEvt7a0a6J+mSw7s0+NHH4lcmUmTJqm6pvZ4/ZhgERgIyIa6s9DMj1c7T9f+0WRzSuA+97nPRR2DOTVsbONwxypj0T1RYBsxq2crK3OMCvKz1FyX0oI5A5ozb5Zaxo1Tfc9kNcxYoqaVO9S97SJNPu9STdtxmfo2XajuVTvUvnid2ucuV+fQUnUMLFb74FK1zVqhtlmr1D5ntdpmr1Lz3LVqXbhFHUu2q2flLrXOW69Y13RlldcqP79MqXhK0yZP0tzhmertbFFpCbfPSiKY6FSbLDoXuBhELArTLgMHBIBJsB/DMYTNMSDEr+GVRt4YwwyjhVjZ582xv/mbvzk+u0sXNtoS7cm1Kcv1Mfxcc//+/Xrssce0ffv2qE5FBYWRnOtra9Xe1q5p/f1atHy51mzarFUbNmnhsuVatHSR5i+ap6FZg5o9d5YGhwc0PDw4MplYNE8Lly7U6g3rdM6u87Xzwgt1zgX7tfKcrRqcO0+d3d2qqkqpp7tTlx68WPfec5dWrlwR1RHQPChoP/JAFiwi4xLws4uQ3tZT7Y8KnMn9oz/6o8jHoVNwsukkNEIEXTwePas2ZsxZGjv2bOVkjVVRQY66O1o0d7hfPZ3tKuCme1WTavrmqGvhJnWu2qH6BWtVM7BELTNXauK8zRpcs0fL9lyhzVfcrF033aML3v2wdt/6oM675UHtOHy/zr32Lu245m5tfMdNWrrzUs1Ysl3t05eqbsKwYp2TVNHSqeLKpLJz8pSTlamG6qQGZ0xRe3uLqqtHzCeaw49ToZ1pC2t0uAu4CUAAAB7RjhE4wmbfEAIdwmffHYEGQDtgBvF3LrvsMj344IORT0jn/OVf/qU2b958vCO5Hp1HYPDyktCVV16pK664InqxyAMhXhmLFnlb6mvV0crstFP9/dMjcJcuXqJFCxdq/vy5EWBDQwMamNkfTSzmzp6lObOGtGjBHC2YO1uLFs7T0sWLtGbVaq1asUpLl67Q8Px5mjilT80tzUolEyorLdac2cO6++47tXfv3uidEb/khGyos10Anodk0mPozMupQPOxUYHzQd58Wrp0aQQYnUZHARzglccAsFSZmWOUm5Op4oJ8dbY2a2rfRCWSsWjmWFBYqcrmXlVPGFDVuEEluvvVPWutVu87pAve9ZgO3PmUdt/9jHbe9bS23vo+7b37I9p77ye06vrHNPvSezXv8vu1+J0Pa+XVR7X2pke1/uZHtf7G92j1lXdo3s5L1Tx5jkqTLSpM1iq/Iqbc/AJlZY5VMhFTa1urkqmqCDTqDmhABzzAxuSCYOCAi2DYrNUsbAROIA+wGUIANIzWipxL4BjakA4iD8GaDdjYplN5Z5f1LwYysCFnQEzE46pKptTR2qyZM6ZraHBA06dN09DAkIYHhjRjWr/GTZiirt5J6uyZoK7uieroGq+29l51do9Xz4SJmtg3WYODQ5o/d65WLFmqjatWa9nCBRoYnKHx47rU1dWm5uZ6VaUS0QMPPT29eve73x3ViUFEe5EfdfUAY5sZNj9ge9OA+8d//Mfo9gfCRQDHYXtd0yUS8Wh0VFaWa1xPtyZOGKfSoiJlZeeoqLA4ehKkOFGrwqp29c5epw2X3a6ttx7T+iPHtOCq+9V/ye2auPuwJu28QVPOvV5D59+kod03afK516h74+Xq3nCZutdfrnEb3qnezVeq+5yr1bntGvXsvFbT9t2ooV3XafLqvUpNnK3seKNyiypVVFQcAZ+sTiiWqIyEFXVeIhF1LtqaJRPPaA0cbUS4hoVtB4Nm6JyH2CA5BjpAQ+sxA2UmTGzA7LPRaeQ9//zzoxmrnw+krgQ6ubmxSeN6etXbM05tbR1qYqG2uV3dneM0YfwU9fVN1/gJU9U7brJ6xvWpu3ckdPX2qbOnT73jp2vCxBmaOGm6pk7r18DQsIZmDWvmQL/mDPdr+ZL5Guyfoq5OJga1SqZSKiwqieqFlsa0cy8WN8SuCG1GVszuw0nEmUJ3Sg3HbQ5GH46stRsdBniVlQgmHvkAvb09mjZ1ikp4MysrR4WFJSopjSu3rFrJ8TM1a8dlWnH53Ro+eLvG7z2sru2H1H3OVerZ9E51rDuo9pUH1LZ8v9pX71fb6n1qXHa+GhfvVNOinWqat1WtC85V86Jz1bL4fLUt26fGpXtUu3SXalecr5a1ezV+9W61TlukikSzaqoaVFNbo0Qyrnh8ZJBQdyYOdHa0Lvj6Y0xoONoDSIbI4IVwAZ73DSX5fI47wbHho1O4bURncW0gQssSAyB3FvDbSAN8y5hr0NEdbe2qralVrJKJRZ0aG9rU2oJWmqi2zglqau1WXUOrktwSTNZFoTLBveh6pWqbVVfPq5TjNX78NE2dOqQpUwfUN6VfveMmqaerK1oQZm1v7tzZ6u7uimao3H1AJgySCy64IPJVkR0WgnZY0zHLv/jii6PZqheFbRlPFZ8SOKg9dOiQeCybTysgKC6M6mfmFIuNCA8BMaLjMfy6fOXkF2hMdqnqJs7XjD2H1Hn+ITVsfIea116oljUXqnnFfjUv2aPGhTtVN2+bqmdtVs2sTaqfs1l1szaqbtZ61Qzi661RzcBqpfpXKDljpapmrlHNzHWqGlin5MBqVQ2tVM3QcnUtWKu2qXNUW9+pOm6FJasUjyVUWcZb/YnIH6FTDZvvkrCWSHsQIkAZItrjYKgMnGPyOr9Bc0w65yMztg2ZzTr7vLDNk8dTpkw5bkapa2tzq3q6uxWLx6OBnUymlExUK5WsVWVllcoqUioqjSsnv1gZOQXKyCpQVk6RsnOLlZNXoryC8ijOyi1SFnnyipVdVK6iMp68aVB1TataW3rU1t6jhoYW1dXWq6uzU7Nnz1bf5Mlq5b5sR6fKyys0bdq0SMvx8IAnN8SWF4PpjT7idUrgIPXOO+/U/Pnzo7UjTAUC56KRH1deHql/BElgZDMaYhUxZeWUKTvVo+TszYot2aXEwl1qmLNDDXMBbKOqBtcqNbBKVQOrlAKm/lWqG1ivplkbVT+wWjXTl6lq6hIlpyxVvG+x4pMWKTZpoWITF6ike0iJCbNVNW6mWicPaML0AdU1NKs6VaNU9AY/nVWmxvr66EkL6sbCdPrtL9YS0dZoGwAxXB7FpLENNNzu4eVrIGKbNILP8b5j0snnQWoZARvyw6/DnGI+y8pKhXtSX9+kxqoGlRbyWFWRYrGkSksrVFhQoty8ImXlFis7ryR64qawsEBlJbwxhxKoVXlltSrjNUpVNyqZrFc8Vq14RaUqKytUVFKsvMIS5RdWKjevVLn5pSqqSEWPglWn6hQvj6u+rkHDs+do2ox+tba2q72tQzU11dqwYYNYGqI9NvVoNzhAPh/84AcjhfammFRKeu973xvNivh8A06kzYUrYPAwB2zTeeN6e9XXN00VNR3KrZ+oiqlLVTFjlWJTVyo5dYWSU5cqNnnRSOhbqHgUFkfH6mauUapvkRLj5irWNSsKFe3DKm+ZokTHFDWMn6npc1doxqwlqqlrVzJVp0SqWmiCVDypyvJyxeOVmtQ3UX2TJqmkuERvf/vbI+3GQrVveWFOESBmwm1CgGGgjewDCFodjeiZLUI3XJzvbcek0SlcI4SNbWSEf8RXoViY5k5JU2NT5J4UZOepKL9UJYUVihdXqDifuzplys4uUV5+qQpLEypOtSjeOlXVE+arasZa1Q9vVvO8bWqZt01tC3eofcEONQ1tUfWExUr1zFR19ySV1zWpoLJK+WVJZRVUKiu3VFk5JcrNL1dxWVKlFSlVJWo1OGNQkyZOVkfnyJcNuN/MOiSDh7YwYOzPMZi4NfhGfifVcCaWNSam+zi/qH/WoegEtB0AIjxsPh0CcMSlZcVqbmrUhHF96p00U5PnLFf74BJVT56j1MS5Soyfo4qeIZV1Dai4faaK2/ujuKh1iopaJqqkqVdlDT2qbOxRvGmcGntmaPLwAg3OX6QpM2eqb/IU1dc0KFERU1UyoUQiqfKycpWXlKqpoVH9M2eqo6tTGZmZkWbDlBIMHOuGdLR9KfwVBIpb4AA4tBOwgIy7KJTB/WG0JecjgxBQw+ZzGYQEIHNnETNZ4GHIyZMnRwvrlNHc1KLCwnwV8dZZYbkqi+MqL6jQ2OxivT0voeL6PjXM3KDJm6/Rgsse0Yobn9GGOz6lzQ89r22Pvqztj72qnY9/QTve+3ltffQlbX3Pi9p872e07vaPaPXN79eci+9S1/IDSkxeroL6icrKr1RObqkK8ytVkFehsvIqlfJQbKpa06f3a8qUqdEkiz4HOPqdttg9oN8ZiGhA3x8+E/BOCpxP5mkGlkYADpuN74FpQUgIFhODc8zFAe84dMXFqigtUzKeUF1jk1o6e9UxfrI6J03XhOmzNGlgnibMnKPGninqmjKsjr4BtU6Yqq6+aerrH9Kk6f3qnjhJneMnqGdSn9q6x6kajZEoVyJermSCR9RjKiorUXlFWbQiPzQwqAnjJ6i4tES/fdbbddaYnz51bOjQdtSR+gKcTQPazJoO+FiucMDsAhywAS3akfPoBNru75xwvrUiHcJ1DBrQ0Vl0Gt+9AzjcD9J4dKi0tFwF+fkqLyxVrLwiAjGzOKXSviWatPtmrX33R3TuY69o11Pf0N4P/p72Pv11HXj667rwma/qwqe/ogNPvRaFC578svY/+aUoHHjmNV384a/p4g9/Q5d86Jva/9Q3IhhX3fqUBndcrarJS5RR3qjs3AqVl8RUXlmhkli56uobNWfO3OPt27JlSzRxdFuQHVqOwYi7xYvxZ/o7LXDc+2NVHZMKcMyeEDCaAOFyYbYBEeeSp08ryitVWjJyd6Kyks9ylSlWUaZYOXcpRr45wvNYzS2tUeNaWtAsHWpp4cmFdjU3tqimulaJOEsbMfF4eTyGyUyoOhlXjE99VVQqVV2j8ZMmaXBoQFMnT1FLU7PG8kABTxqjjYKXe4AF2NDAaGY6HiislWhLGACKY8AHSPbFAIRjtJl0tJw1JIACEfLhXIDjPGsFZEWn4YwzO+W8zs6RL0jxInhpQbFiRZXKz8nWWVm/pd5Fq7T5oWd1zrGv65z3vqZtRz+vHY++pPPe+5LOe+Il7Tz2knYde0V7jr2q3cde1a7HX9buJ16J4vOfeFU7n/iSzj/2Be3iGPH7v6xd739Ne5/5Pe16+ps655GXNHzwDjUMrVFORb2KS0ZWHkpKyyMNNzAwGEHHojXriQaONtmP4+4JL8ef6e+0wP3BH/yB1q5dG/kbPLnA6DRwHtFcnEogbKAbnDmoyZOnqK6hXpU4xaUlKuG5tNKyaL+cl3EqCDj3CfHYEq8MstQSr4xHkw7iRCwR3dpBABxPsnDbUKf+Gf1atmyFhoZmRff3Gurro7KZJefnFyojK0sZmRnKGMPbYyOa6bd/+7ejhU0GjTUNWhrIgCOEjW2bSmtA9mmvAQ2Pk8fncNyDEY1vzWbo2EeOfGSHQTpuXG/0ymS0DldcrPzMwmhpKSP77Zq6co02PfhRrb7nWa2973mte/BFrb3/BW184HPa/p5XtOM9r+icoy9q69EXte3oy9p+9IhlSYEAACAASURBVOVIC2577GVtf/xVbXvsFW197CVtfexlbXn0VW09+vnI/GJyNx19VZsf/aK2PfYlnfPwc5q5+xqV1XWrogz3pCJaImHmioJhUZp+p+70MwEtx4QKd+sf/uEfzpS3078IzcsW3K7h4iFwjE58EQSPwNEWCJVQX1cX+SfDs4Y1e9YcLVywSDMHBtXR3avq2holU4loDQ8tg6aqiBaSy1RWzttcZZHTn0zGR/zACeM1a9awVq5ZrRVrVmrlulVaunKleschAL4LN3LbbUQYqejFad6dyMgcq7EBbPhcCA1hoeU8Ew2BM3iAFQJFXrfTAJIWlmFgnY/6AJFlEnYUppjXFJk0IMeC/AIVFRapiM9cZPJAaa6yx56l9imTtepdD2rJbR/Xsjs+o+V3PquVd7+gVfd8Tmvue15r7ntO6x54Uevvf0kbHxwJ6x94URsefEkbHnpZmx56UZsffEmbH3hJmx54VRvuf0Vr739Jq+9/Tqvv/h2tv/tzWnH7i1pw5GPadNf71DlrbqQYknEmSeWaPn1atDrBBAdlEgLniQMv9Ph5uTOh7rQajtfRuCCzFZ4WsA9n4OgkBA9waDoqkkiOfAaCCpKOCeNzq/iCc+fNjWa98+bO1cIFCyIfYMH8+VH5XIPHYFDTAM76H4ujxKh0AMdvKysfmaC4M7kOwX6k/TUmB5hRwKaTyYM/Rj0NCPW35grTDJ8B8zEDRbpBJK/zOx/X4jaV64Vc7DeyzRO1ONzIBzBZBsnNyFJxZoayc/OUm5mhZG215lx0o+bf+CHNu/mTWnTk41p+6+9o2W3Pa8kdn9bS2z+l5Xc8F4UVd3xWKyIgn9OKu5/X8rue14q7PqMVd35Gq+76rFbd+Vktv+MzWnb7SFh626c078hHNOumj2vudU9pyRU3qXZip/Lyc6IX0PnqweTJfdFdEL6tjOvA5AyZM3ioN22GDT8N86YAx9fF8TcAgDsOwINJDYGzhqMjLVSPaHcyK+n4NOxTaYTuzqHDHehEysFfID9mybd9AMfnGzZip3FtgAI4ZpIE6sbo9Cya63INrgfACJLYwfCFEIXQWfOFdU+Hjfy0n0e7aAfXtDyoL3VkEsZbY5TDmlpWZlZkSguYlOTwYEG2covzNXHdeRq65mH1H/qABq5/UsPXP6PhGz+u4cMf0+zDH9O8w5/U/MOf0MJ3fVILb/mEFh35pBbc8gktOPIpLXjXx7Tolo9r4S0f1bybPqj5N39Qc9/1Qc2+6WnNv/Fpzb7+fRq8/knNuu4x9e/Yp9JUTIW5PNDAakNF1M+80IMSoB24NG4HwCErPgz+Rn6n1XA8VsxTDGifEDg7zQgsXcMhYAvZYAALlSaQRozgCYBluADM6eE55AcsQliOgSMdYbCPZuMGvf1N8gMxsFBvAPQM1O1gAJHGPhA6DsGjrYaLskaDjnQ6g3qg4YCOelEHy4WBQR60A5o7MyNDubyTwdegsrKVlZkXPc+XlZelhqmzNfeS2zTwjkc1+M73afCKYxq49knNPPSUBq/9oGZd92ENX/tBDV/7jIave0rD1z6pwas/oJlXvk/9V71fg1c9qaEr36/Bdz6u/ksf1fSDD6v/0kc0dPlRDV72oPrfcZ+G3nGruhcsj25NlubkKTcvXwVFhdHkBtNPm3kcLZUY8d9oB33OIL3tttveCG+n9+EojWe+AA7hWMN59obQQw1HZRCoNZ21TwiLtwEqhMr7jg2WY58XxiFwbAMrExc+vMPoxCQzy8bX2LhxY7SmRDpmgsdwyIePihln9sgyRwgeIBKsCa0BDR+dgeBJtyzoDOroR6ColwcgcgF+jgM+1+eOSOaYsdFrlNlZPGbFZ2jzlZWTpZJUneqmLlT1zK1qnLtH9UPbVD97m2qHN6tqxkbVDGxSavo6xaasUmLaGiWnr1HFhCWqnLRUpRMXqWjcfBX3zFVJ9xyVds9RUfuQituGVNTar5KOfpW0TFNRfa9yYyPf9CvNL1ZmdpbKyssjGSET5M/yVjIxMlmgDbSbNTperH4jv9NqOArjDXXUKg/f0Zm+vYOgLWRGLIIkhMAhbENhcAwZMYCE6T7mtDBOB81lo0E4hpbk+izh4GtSPzqf+rgO5GWAcIw83LbhZWNuVOM6ACEzSBY7ARXTh6ZkgAEdYKHFrAUpJ0ynbAPFrTM/AsX5XDvUctSXx80BvrCwSGPGZionu0B5OXymrFC5uQXKysrT2Vl5entuXGfnxzU2t0Jn51ZoTH65MnIrlJGb1NichM7OTugsQg5xXGNz4jo7u1JjciqUlR9TZl65Mgj5ZSMhr0Jj88qVl1Oh/Oxi5RYWKrcgX3nZuSoqLNCqVSsj35n+GZHzT78wX1VdFbUZ2XEn6o38Tgmc7zY888wzx+82sDpuLYCgAS7dpKYDZ1BCeMJta7QwDo972+UQGza2Oc6+YcUs47Olm2af7/LIT178S84HFrQOA4uXXNA+F110UQQhIHLvkzUpJkDM2HlwEhkw2q35rO2By8/dcUsMOaEpuQ7y4TjbQIcWPnf7TpUWlWnMWZnKyy1QLpouE18uX5m5ORqbX6LMvEJlZhdpTHZMZxUkdXZhlTJKmzS2olU5Vb3KrpmgnLoJyqgap9yaCcpO9mpsaYsySxo0Nj+hjLxKZRWUK6uwXNnFceUVUcdKFeSXKi+/ULk5uSrMz9fSJQujVw2jpajXl0ESqaSSqZEB01DfELUfGT3xxBNvhLdTm1QDx38uQDPTeIBDw9ExFraFHI5ehOlgKAyEO9yxQTMgjp3umPwuy/B438e8Hx53mutDTIePNjC4FrA6kA+NxiBj4gRwwIdGxCzj47BOhSYEKGRgLY8Px71bYqBGZmhEIDNw1KWiskLLli3X/r0Honc0zjprjHIz8pSfzfdbCjU2o1hnF9Yqu7pX+S2DKulbp4rh7apbdVBt225Q184j6tl7l7r33atxFz6grv33qWvfverZf4+at96kxjVXqHbhXsWmrVVB5yydnerS2QUVyi+MqYCnSwoKlZGZpWQipSWLl2rB/Hmq4Wnp1302npNj5SFVlYp8W2QBD6zPPv30028ecC6Jvyri6QZMVbqGY3TTISF0oTARKB0eQuPtMAYyOiKELdwmrwE9WexrhfAZPJ/jfUNHXR2cFsbOz/U9Y6aeQIWZZKkIwQOhzTCLpdSdtT9MKpqOc4mj59w6OiJ5UDbXjp7bKyvV8KwhXXzJRZo9e44KixMaW1Sv/Pppik1drfoVl6lj130ad/CYpl71tKZd91HNvPmzGrjlBQ0eeVGDR156PbyiwSOvaODIK5px5EX1H3le0w5/WtMOfVzT3vmM+i55XN07363kzI0aW9qg7Mw8FeblaFLfhEhz85Y+dWfgYLloJ/IgRsEwqJg8Lly4MGo399rfyO+UJtUFfe1rX9O6desiPw5TgobDsbaGAzibVSoamgwq686m0xByCBrbBouONHTO42PEpLksg5Aeh7Bx7fD4yc71ADF4J4vdLpdJedQLbUgaMmFg8rQsExPuauDHYVLJR0zZQMrki7ZybiSjeFIlpUVqbqzW9m1bdN7+S7X4vGs0c9+dGnfwCY278mMaf92nNfmGZ9V/07MaPPyChm97VXPv/GIU5t/9JS2458uaf/cXozDvjs9r4bu/oLm3vazBW1/Q9MPPafJ1z6rvmmc19epPa9K+B1XUMlWtDfVauWCO5s6Zo6pUUrHyYiWTJ1oA+pfBhXLB72XyyB0GBhrW7438zgg4vq6DY8vEAeBYRPVanJ1ojwaAc4edrMPpKAMVAme4fMz7jg2cO5zYgLlM73OM64eBYz7u2GVRZwMVnuNtH3cet5HYZpSYcpEFEw7eWmeSxbogYPHUCW2g47AUaAomW6Xc8qvEbFVHn7GIl5aqu7NXKzeer3MO3qyN1z+uVTd/RAtv+YxmH3les257KYJs3t2vadE9X9XS+7+m5Q9+Xcse+KqW3P+altz3mhbf9yXNv/cLmn33qxq64xUN3fayZt/yvOYf/pSW3PAhLb/8Pi3dsl9LFi5RT1eHyniCm3vVqRN9TPoZrYwFQ9HQHoDDpKKE+A7dG/mdEjj7cDzVyZoRapTR6fUt1Gu4HGDfxZ1CZ4Ud7w4nNlRhbLAcpx9j32UYFPZ9jfRjznMmMXU1RCFkpKUfcz7aadgAB9DQBgTOobPQZJhSA4dWQ250IMeR6cSJExSrLFNxcVH0oAJPUpdVlKuUj/DU1qlvxpBW7zyoc659SJtv/ZDOfZDHj76gDQ9+Xhse+qI2PvRlbXnkq9r8nq9o40OvvR6+rHUPvqz1D76sLQ9/Xtvue0HnHvmwNlx+j+Zs3KOpQ7PV3NatOE8SMzirkkpylygx8oFw2uK7StQV7Y3vRnsMHHdK+GOYN/I7JXAuiLe3WDJAOIxKV8TAMWKp1JkCF4JkiMK0dOBCQH8RqAymgfI+MeUapBCwMC0cSE4PoaP9gIcsGIhs0xZ8OUDDvOLLMXFgYZl8dOzQ0KAWL14YWQ6+dxw9rBBPKJ7kM7RxlZQUqay0XKmaRjV1TNLAwvXavO8a7bj8Vu264R5dcORhHbzjvTp4xzFd/O4ndODW92r/TY/ogqvv1zkX3KBV2y/W7OWb1TNpQLV1rUrEkoqXl6kyUaF4VTx6YytVWaHKinI1tTRHCgVNRv0IuE5MeNBwAAcDaDjWNV988UVjckbxGQHH7a2rr746Ao51Iy7KkgBCQ3jpwNEZdJo1S7htYAwYHeLt9NjHRgPOacS+jmOuN1o6x8O6hNscM0SkO/gc9g1cmMY5hs7azlqOpRDyApwnDcQMVAKyIw9lN7XwmYlFWr5khSZPnBTNEstKS6MV/sp4hRLJCiVj5dEjXmUlxaooK1VNVUq1fHaruVVtHZ3q7O5Ve2e3mlvb1NjYovra5ujuQGUlzykWiTgWK49eMKLe5bEylcdKVFWV1ISecZo3Z66GhgejutEWBgN1pK7WcKFJZcbuP1s5I9qkUy+LuBBe63/ggQeihUCm/wbOi6HpwIUdg8DpfIdw34BxjG0DRowJQis4j2OX43OI6TDKJbDtPE5zTLq3nZf8DicbKD5O7PPDtHTogIiAXMjPsgjB71CEt83IB6BV1SN/0dnc1KThoSHt2HGulixZHD0m39Y68rJyBV98jwFKUpXxmOKJWPTiEo9lxaInb8ojLRUHzHiFKqnv6zfc45FcEipDzvGYGpua1Dt+nKZMm6aFS5ZocJgnV9qi+6W8F4Jmo25oajScgcP3ZJ0SDceDma+88kqEid0vM3Oy+Iw0HB+nY/GXWQnA+VFzgAs1HCaEkREC544JO4ptOt9AsR0CRToB8EIIyWOYwthlO3Z54b63w9h1c2zgRtsPz2PbeYg5L4TOHUVncRwfDtiIaRcyoxM57sGK7Cw36k8erMnq1auj1/F27NgRPVmD7Lu7e9Ty+pofMrGceNPK25E8Y5XRu6aNDY2RSezt5ZtyPEu4LHpShUkglgpNVl4x8mAFbgF9eDLg0HAGji+Ifv7znz8ZW6OmnxI4UwtwrLew1oQQuL/m9SQDxyil4vbj3CHuRHdSuG+YLLRISK/fXw2PkU4nhJ1u4HzM+6PFzuM6UQ752HeZbLtuYTr5nCeMyRMeM3BAQ2chF8AjD6CxJAJ0aO5TAecBS/mGh/IAg2UW7mnjO2HOWPdDCbDiz3IMd0C4J+z7x2tWr4lmy3zpE43EwjXA4otRTw94rsW+g/1Q+tQaDuViH87A8YiV/0pqVLpGSTwtcEDH804Ah1mlQVTawHktDuEaOITmDgg7j+1wHxDoRGKEG2q1kwHn8+lIB8rwdnrsskl3PoNDmstzGjFpJzs2Whnkpb1uM4DQUSFwwEbAh+OYQ7qGM3B0vutGGwDVAdlwjHOBFxg9g2TJystWmG7qYLhCNyW9va471wc4+jIdOK6DhkPpADf3oPmIzxv5nRI4CrKW47PtTz31VPTtNC6KH5e+FkdFCRaaO4HYwnOH0UkI0kAYOEPn4waP/fDcUGDeJk8YXH56HOZJr5evwTnUO71sH3cZ5GObcgh0LjIABjqb44BmDcctLsNm60Dnco41DLFlFtbP1+J6bCMbAhATKBuo2A7hJK8D57pNLpuY64XXpz4AZ6jRcOnAsVT2u7/7u2+Et9NPGgwcfz7BF4H44DAqmhFFBTxTtYajovYDaMRoggs7y0JzbME4Jt3bxKHAEFwotBAG8obnhtu+PjHnuwyX7dgd43K9H57vvJThDqP9oYYDNgMHDFgFBzo0tAyU4QHruoX187XD9oVts4ycj9hpjt2OsPzTAcekAZPKpAE/HhONX+lPd50pdWes4XAOedgOTceHCrmvCvUEhMtowJSkC+90wCGE9GAhjZZuYTl2Z1h4nOsOILbGZNvpYWf4PMcul9hle9v7Pt95SXeHEQOctRd5ucNg6Hh6mWWGEDjkFg5Ug2vZ+TqUZWiIwzaF6a6f8/uY011e2C7X39cONRx1TQcOkwpwvGT1Rn5nDBwF84kmtBy3M/hwHivOVrk2IScDLhSeG26hETv42JkIy3ktUDo+THP5o4Hmc0YTPmmUY8DCjgnzh+mGjnaioSwPrgNwDqzJ0YFei2Ownglw6e0arW2ud3pe76fXnX3q62DY7MedyqTyfgofZOS25xv5nTFwfGb0hhtu0K233hqZVf7biWehmFozGhAcQj6Z8GjMaNBZGI4NgvfD2AIKBWfBG47wfLYJno2FZTlfWFb6tssknW2H9Hw+HnYcLgbyAHZg4zElYh45BzhcEUIIHHKks11OeP30ulN/yrYGd1vDfN6mfj6eXneu4es5DoGjHWhrz1JtUpkJ83ygPzZ9ptCdMXDf+c53og/bAB2wfeQjHxH/w8XsFdUKaFSU2E4w+waNxrhxxBZGehyCwLFQQOy7E3ye89O5mLLQzHjbneJ9YndA+jXC63Etl8+2r00e7xO7XmzTTtoMSHQU5/OIkr9pwhIJnYiGM3CW12i+b1if9DZ7n5jruJ3p6Rxz29kOywzbcTrg8NvTgeMrqfzs658OvDMGjpddeX6dJyCYOAAdwH32s5+NAumsz7jSFiLCTwePBodCsQBGS/MxBONt52MfAbJvoVro3kfQTjNojsNyXHZ67A5yx3AOeQwX7SUt3CcN2Lj/yDE+D+HAjJVj+ETM8gHTsrKG8yD1NV0n19dt9r7jsM0GzG3nmIPzux2+DvXm2oBPnVAe1nDUl+UWL4tgUtFw3/zmN0/H2AnHzxi473//+3r00UfFv9PwN4kAx7NQ+HP8vwEPaaLt+JoOC8M0hgYaQMc0iAbSaAvSDfZ+KAgLhzyUEeZlm7wsB6BBcMwRsAWbDhv7lMfx8Prhdb3t6zqfr+t07zs/+24j22gwtAHX4jMTDphVtLGXGIDPwFnDIaMQOq7h6xK7fW6Hj7HvNnvNzeA59rmcQ7luh+vPdVEQ1AkfLh04azgWmrFs/qr5CVSdYueMgfvRj36khx56KPpPqI9//OPHgeNfXPjgDYGvnvN3OcDIm17YeSpNYxEAcXojwwaH2yFcYUda+JSHA86sD78IDUJnApw7heux78C+j7mTKO9kgfqEHUM+OizMHx53PTmOn4bGpwyeh+PVRQIDg85k8ZRH0wGTfQLAGbqw/ZQRXtOghfC4PaS53cTOw7bb77yUSdmuN3E6cAwOa2RrOJZF6FsWfn3z/ky/aH7GwHG3Ae3G7BT/De1GwKSyRgdwPBsFdNzQ5ZYHH8JhCQWtx8N6PEeHYGkoEACNQbQQLQxiCw4NBlgE0lH13BPkFg9rguTzl41Y5zIoPj8EjrT0a7kz0zs2rEu47fxhHHYc2wYObcFgADbqCHyYTjqMWR7OeOj32qwaOMMQ1o26pLfBaWGb2Xa92R6t7WG9DZtN6mgaDpNq4Ki/7zS8aT5cqB0xpffff7/4gwz8N8ypfThiAwf1BINHpXhMHdOLWT58+LAuueSS6GkDbpX56RNGO6MpHFE8YcyaD/cN+aYsf8fEq2lcizJ/7/d+L1LtfE4L7QHA7hwL38J27FHvzgAczvF5Bonj4Xa473THYccBCW1Bi4XA+ZNfdChtwgfCjwMyBiJxuoYbDTiu6bq4DW6T2+iYdLZ93LHPc7t9Hep7MuDCSQMmFeDe9HW4EDg6mX9I4du0H/rQhyLNhkkFNptUHsgj4NMBHH+DTWDh+Ctf+UoECbdDWKEm/vKXvxzlpQw0Jn4gi8vAibbkPL6WzR/WAhcxAKNBMd9sP/zww9HtIwNnCBAu2s1CDjvBAidvKHRDR+xOdXmnisnvTmMb4FinpAPRasDGpyfQcoDF91J46wtfzsCF0NmHC8ukXAfXxe1wGx27rY6d7tjnuTxirkkIgcOkoq2ZNAAc99EZSNSfVyjf9G/8hsDhILLwy39wefKAOSWE2g3g0mEDHAChDCADPgMINCGEQMW+4XJem2nKoCwCMPKvxphSOjPUcAgX4DzCLXzHIVAn23bHEtMp4X76NnA4D6aSzjFwfC6MD+tgWjGhfMiPp2/wiwCONEKo5ULoDEZ4TUNDbJCIaV/YbqeRHp7jNrts6s81qbPrlA6cJw3UHz/df2X+SzGpgMHSCM/GcTHAM3CYUEBDK1nDhZAZNmABHEAxSMTsnyw4H+cBK76hy+MYDxUgPIADPDrFgrX/FnYI2xa2O9D7CN/bPnYmMedZG5GfJRF8VvxONJw/roOmY1AwoQA4+7X4S/bl0DCE0wHHddxOxyFcbudoac5PPBpwaFvqE04arOHwn5nwYFm88PtLAQ6Tdscdd0TLImg61t4wg2g3JhKYRTQb8NmMWhMBGgFYAMeQEeOLGbbRtp0/BM7QkYZvyag0cAjRnZE+0hG+g/OFQCF8n0sc7oedFJ7DtrUDkHAOJpU1Ns9Q0W5Ah4YjDU2BDwdwaBOAM3TWcpQ1GnQGJKwndTNgrmcImo+j5cL2k055HixcD1meCjj8TtwqfGn+Q4zfLwW4P/uzP4v+FodbWix9MIFA27HNSzbAaHNqs5cepwNn0BwbOGJvcwywHKzlXBbXZ70I7cGM1h1hgRu6UNjpQk8HKNx3ZxG7bKc5X9hhdBrp3FUALgILvphVz1Z5npBHtDGpdK5hs1ml09Nho8wQNl+bmPo4hPuWgdvr2G1xeYaOa6JdQ5PKJA6NTV3ReDwEiqU7evRo9D9iodt1uu3TLouEBfBvedxLvemmm6Lv8zNLZfKAhuFbZ0eOHIlMLceZxaK9rNUcGxLgsXYLwTJomG+DRmy/z9BRDmVSBhMWHFu0iIGzYIkNXJhmYNI7Kb0Tw85z3jB2fgNnTYdpBzQGAXn4/yqezKWOaGLqywwcZ9zAAR3b1nBA53INhq9HHbxNHNbJ224vA82Dzcccu1xiYCNwXWtdBjJ1RatRPyY5KJb3v//90RLZd7/73QiRN1XDuTDuNqBGuSD+GzNJZqkEaMfEsjbGkgdPB5OHPxZB6wGKZ5xsMyEwaIbMWo7Yac7jYwBmDWfgKB+BoEHSgUPQAGfhEyNsxxY8nWbhuwMdnyy/j/tcw0GnsSjNrJk60WmsRyIn1t+AkDrZdHGczkwHLvTjXDdirpcewjq6bWHMdigHt5vY9TdwxKFJxT0AQGCjj1Ey9Dd9PNoXzFkEPtlC8Gk1HLD5ZP6GkU93ITwcRjSbl0TQMphYKnT33XdHrxXyOBMjAfAI99133/F1OzQgM1HDxTZwodkMGWleCgE09jkOcIaOdJZgeFeWzqWjESACJqQDx35657jzSKdD3Rmke9vnuBPZ93FizjNwxLylxYKvv8LpyRYy4z4kd0eYPJAX4AwdHe1Jg4EDAPIZNuIwuB5hncL60maC5WEZpOfnGlwrNKnUC9iY5KBouI/OB2zQ2KxU4LvjVqFE/uqv/krckfLP7FhhkX5a4Awbf/5w4MCByJxyUZYiIB3gmKn6DgMTBrQg4FFBKsRferNIyAOcVJLj+IEsAgMXEwzKZBt4mIQw+eBvdWgM+8AG5Cw6s23orDm5fwtwzArpgHQBp+8bSGLyu9O8Hab7WNiJbDv4HEPAPvd1bVLpMG4LUneAw+fkPiQdTH2BLASO/HR6uh/n64RxeE3Swzq5vrTdkLndHHM5LgPYbE65PvXDp8QVYMDQ308++WTkNtG/gMfb90yOkD/fG6Fd9DsWDNAcDOFpgfMHgwGAi/P32ICA4Linmr7wC3gAhI8FjFwcYQMblb7xxhujdITPIjIaDshoACCh+ZgB0zDyAyeLwVwfzcn1uQbn2R8k5o0kgENzhHBhRhwseB9H+O4gtt0pTnOHeN950s8nnzuNTiI/93UNHEBhfli+oS0MINwAfF46ymABmsNowHGN8FquX3rM9UkjNmBhnJ7fdXf55KUdzKTxzVEMwEXd6TP+TBhXCWXA8giPWWFumVjg2rD+yMIwLg+/N6ThnJmvASFonodDcNAOcPhxNqsIEhgAiMAFWRbB7JGOhsIkA6GfHLZPxmSE/GhLwGJCAtjACnjEnIdpphy0IaBZ09FAHHL8Jt9zpb6EEDj7MYYmhAlBe9+d5s5xh7lM7xM7Dx2GlmCfZ+CYHOCvARTAWbvRNiwBbaC9fNWACQRazp1vTUN5BAAg+Ljh8H5YB2+7Delt8rnkc5stI+rA6wN8BRQ5M/Dts1166aXHn4lEYeBa8Zois1j8PBa7WavjdUbawx0jfraSbJ9Swxk2/CYLkg9MAxzE+yY+Ws4LwIxcA4emM3SAgVaiLNKBk/NIx08DXkYSzigdgtnB7NJgtByjCXjpJCAHNgeg5Ru+ngHS2UCHEBF2CIdBC8FxHh9zfqc7Jt3nkRYGdzKdyXUBnyUQfDjS6DzqjQan3bQfOVB3zI99YBaD8ZdYfuB6+HnEXItrhNCRFgLnPKSFdXO9fZyYOjLBYjaN5eJ+Nu+Z3n777VHfAgtuDrJnG5+Nd2H5EFcaRQAAIABJREFUFBl9hGuE0uArUUBq6NByho5JIj9zdErgwkyoVdaUqBwXxX8DBCrEwi8CRGBAB3CYP0MX3m0AEHwuwCN4pgpEQAecdAJQGkwgIx/75HMHWbNxnLL4nBgmFTOGZiHGrOG802kGJYSKbY45eJQTO7+33WlONwSOgYGO5HoAz4SBehg4NBwDyRYB4GwF3CbLg3xodO5Vom14W4pOpS5MigCFbeod1o9t73ubmPy4GtSNbcw12ghNhM+FO8OAYDDQnwx2zCewodXY5vP43F3iaSEUAUtfnIPfhsuAhqOODBTK5n7raO87nFTDGThAwK9g1AAcj6dANioVVQv9CMiTBwsS6ICHAHTABGyAgoDZBiAHQ2awSDdoBtQx51OOtSfpjM504IDOC60AgNYBBgeAJI18BLZJY5GWDkJL0mZ3rDsxhBbgDB15KcNlcm1MKsfvvffeCDaAY2AiJ8xqOAhpF20JZcIAxqIg82uvvTb60CFP2NAP+E2s47FORkf7sXZ8KjQNx1lgxqfiHJx/NCh+NCsKKA2UBX1HvTD5pPE0DxYF4FA2uDJoOEDEsuGP88gZ7pHfaUHDoSmpB+Cx/MN7MGek4YDNdheyGRWocgRKzN+So+W4OKYw1HIICEEyeoHOsFkjERs2Q2awQtgsdGJ3hIHjfJtToOM8ZsG/9Vu/dRweQ4SWIdD5DkBAMBDpsY+RTjkACoRoeTQMcjB8xAaQPOQHbgLblAGw+KV0qjUcFgH5GDja6LbSPvad5nRijiFTIGHAM/ABgyUn/Fuug0PPfuiD0UecA+jE+NRsAxb+M3nJg6lkNQLIKZs7SJ4gkAZsPCLG5AEfjska/iawAxxriQBPf3z7298+M+CiXJJ4QQJaMReoYWKEh7qkcahXGu3GMHJpCMARbFqBAsESW8MhPANHHEIXprMNaO4AYsNLmZhU8uDkWsMZNmIDF8ZAEAYDaNCIMYUOTuccykGDsexhAG1Gw+uG10ZT4huhIQDOPhzy8QCkXR5QbiNwEUL50Wbyke5z2UcGPg+ZYFncB2yjCIAciwRczJBZI8Unt7lEeWA+0XCYTSZtuE1oPfIzcWSJC22N/47W5REsLCCgARzmFX+QxX++K3hGGs7AMXtCmMDmaTrQUTgdjFpmRKBeId5mwhrO5jT04wychRTCZQgteB9jH2E6UAaCN8Tk4+FMAAk7PYTM2yFo3j4ZcAbPx9MBpMxQk7HP9Z3mawIc/g+dbROGrOzDhTKhrQaN9oZgse12AxUBGAlAAQhMvFACWB8PfsDg2TtgZ1kJaA4dOhTlRVsBHaYT4KgjIAIUJhbfE1OOz0Yevt5u7YeZ5ckRJpSAhqbD9eLRJdj53ve+d3rg7Ltxox57bO0GxRRK4cAHxSyRMFpQ41QarceoQJBAZtCIrd0QLkIFLgeDFcY+FsbuAAuectESnIcQAehUwBmwk8XWZKMBRhqzYKBj27HPoUwDZvCs5TDD+E10pk0qwFF3Q+PBlD64QuDS2w98pAEZQAMa/QFE9I21HE+l4FORBkD0EwMURQF4wITysAamHPqRfWalyJbyMdMcwwyTPwQO7QYbQLd+/fqo7NFue/3MpMHAcQEEhsNrgq3lAA9fDvtNJVgIZAThuCNYRkY4Aq2JiNOBQ8AAM5pJDWEjD8J3AOAQOG6jnQy4kwGWnm54iAkAZsjC7VDThecYOpdr8JiAoFnQIMwE7UsBBPKgTSFwhi5M57g1IelsE5AREAEA52ECkQUaBg2HMuC/JPC9mDBQDwADFrQg2gyNxUDAnKIlgQyTiJajb3kUiX4GNNwolkUAGx+OxWG0GkygnJhRwwJ1+MEPfnBqDWfYeOmZqS1+Cg4yBRo2Yvw6Q8cH8/BPcDyZxjOdZ/bCPs4sArHpsJZDMIbJwAEUaez7eNgJPkYa5RhoYo4xtceUuZOt6dz5jq2FvE88WppBAi5gwz80fNZuBm+0slwPjiFHzJI1HLN6YLCGM3Ruu2PaCly0D/lYHqTZtLKNCwNwQIWvBQwAh5vDPtqK6wEMWguzzj4+N4MAYJkYAAmuEuaZ85k0UCazVOADZiaMpAEefc09bPPBshDLJJhd/EC+K5j+O0HDeWbKBRAY2o1ZGBMFwINgNBvq0yYW8Lifxt0AKs6IoEI4nYYP1U3lw1GJAA2Zb9Czb2EbOudB6IQQODQcWoI0zARLGvafHIcwjLZtbZZ+jPaTxnGDFUJoEInDcw1vGFMvtARaxDN6oLPrYdMYtp1t2kVMG4EVSNKhY/AhP8DDTHOcbQYi53EcIDmX66FhARIlwSDAtNJfAMfsFD8N7QcwaDwARRMysaAfyePFYQY5Sy5wYeh4O48ZKgqHf6JM/50AHBqOwNMMaAhgw//woiHOL/ABne01Npt9yKYhaDXsPJXFt6BRaD5GGyOa0UYDyIcQAIp0YDRcIWwIMIQNYVrDcR7CRLiMcOppvykEJh0cayxgMVDk8TmODVIInLfTz00/38ABPoEOAzg6HBngejAI7WbQLgNnqIhJ87onMkPLYAaRAQGo0EiGi21rJOBmIGJGuRb9w0Ius02UAVqMz6b61iG+GvVEK3rSQL95FkuMnLkGCgWoMKloNhjg6WW+GYdrhSm3xQyhOwE4DpCJuwksJmJW0WBARmeyHsVoZV2Oi7D+BJRcDG2IesU/QFXjp6C6sfNoPnxCGo/QAJFjxBwjphEIPQTMGg2hkw6UdBCajdEKsF5TogzqGXY8MAGXzSsdz5KGYy/QAodB4hxrMgNHbDCdz8CFeQ2ZgSVOBw7oAIYOI2a5woAZuDCmzcjIWpCBDBAMNPIxuPG3kDPH8L/oA3wuwMNvw1QCAJMGNBRmE/PK5ILnF9FYrDYwENC89A2AuixAROvh3+Hv2XoBKn0OA6xc8OogExRe6WSQjPY7ATgTefDgwQgi7onxh26sagMfK9cEtBvA2dRibtnnwvh4qFUawAgEGvwEbD6CAxAWjdFOCIVG0Qjyk4aWIxgyj3IEH2o2YANsOpAyAZk6ABgdzcBgEDDTJlAv1D5pmABrZtIYMOxzzAOLMoCKxWT8N4MWakdDZyBDWDnfAejoNGs45EF9iRmEtJ1Jk12LEDjSgQDtRAcDFsChvTChmDk0GJoLgIEC0HBtyA9MyJh9oPFMFasAYORnkocMgRAziQXCD8dVon4ADcSk01dYLYCiTkwSUDws/AIvt8p4dJ6JhX/miv0TgHMGGmSI6BAAo8N49ISFPlQnt1R8a4VJBHnoSDoNMwyg0I4Q0Fw8eoRWAhxGNSOThtIIAqobwZIPgQMqsbWazQdlsIBJXoROGcR0GnXl2mhlrs/9PbYZCCzS4rz7jgH7wIWbgMa2psY3BT4CbXJ7gAaggA8If/M3fzOKQwBPpu2An46mznQy/hgxGoZA++lstDyyod3Ax8BjwLFNOu1EDuRFy6DVAZfBx4AGAgY1Zg9wSAMo0jkHDYhJpx7AjxyBFogABCjx6SgX4NCGnIOCIA99CczAR9nUHdCQHUoJ2DCpAMc5o/1GBY4LQq2dQTSAgQrT6RQuyH07OhgzTCdzawMIAYB9TDQqmre0ESJQERi9gIUQEADCNWhASghNKMJBWGgGgKWDEASjlQ4ALiY0DA7qDkwsXANZCBrbpDvYTyUmGEA0Jm30GhMyoE2UjZABCciADgiJre2IreG4Dv4O9UdjYN4Ah8FDW9BEaHs6mY6nszBrmE1kgn8GcB58AIlcKIM02s8+sQck53IO+14+Io2ANkOO1IPrAxBmF7cH4NCKAIoGY2Aga/qPiQ/mmPPw8dCqtg74/cCGOcUv5PzRfqMCR2EWLgU6IGxCuE+nEJzOedhz4CMAJFqDBw2pICODRvPmPe80coOXwBvcjGSEiZCBzcK0z4bwGM2MTGI6gicSAJnnsmwuMfVAA3AARIeHGs7wheAZNs6x1qMMB6dTNm0FRMCmvWwDIFoQ6AjWdphdzgUoOhmg6DgGNYAQrGmI0X5oPGaJaCv6grw4+V7fRH7IxgHYkIX3PVAZxJhgZA4kaD32qQfaEo3GYAc0gMNUYt0AnmsRmKRQd1wCljuAkwHCYGdyYHOKUkHDkUbgvNF+owJHxzKqGckhXGwjbITsYNCIAY9zHNwZdIw7CFPsD9HQSCqPUBECQkN4aDk0oH0aBOhRit/G6EdgnINQUe28usb1cAUMDBAZNMwpGonYAeAMH1DaxKbDZ9gcu1ybZSDk2rQT8JiMhOt2yIN2Umc6Cr8LfwqtTBrto80E2o9mwiwCHJ1PfoAjoCEBBHAJpAEp8iEvHU0amgnIgBufGljwxVj2oFyugQLgOCBiLtFowE55mFK0FNrOM1dgBFigox48gcKARJmg3fiakgPLKfxC/439E4DzQT4yh1lEUIBkqADOoBk+H3de0g1ceJ63OWatyLb9LR6j4SlR/kCOh/r42AtP8bLP13p4KBFQiZnIsAzDl7RR5eT3g4BA4wAQ4aNIowFnv87gOba5dewyDTMx4Fl7Gl7SGPUcZ3aMqUXjAxediHmiI/FZmUHSycCCafMAY7AxqIAOAICHc4CCTmfNjCUNQAE+9gEVqDGJOO84/IDq+6RsAyDXA1T7btTDfjCQUA80KtehLAACVHxB6oIPxzW5PhaMPqQP0GqYUvJjVlEGo/1GBY73T7lXiuAMmGM0VTpswMSFDR9AYd4IpHEu5xDYpgyncdyakfzkQbtiim2SiRkAzDbto2Gm8RM55gkMZRoAYCMAAqA5GIzTxenluDzSgSoEj1GeDh9paFt8OSZbaDbAwedEgwAQPhsmzZ2Ppse62MdF89nPZRt3g5k8YKDJKMMmE9OM9kfbAwzrfMDNpAJYAI19WwiuiwlH02ElGAzAxsBgILB4y10FzC7XoN5oO25bMQHi3ixtxEfn4VcmCgAHeACHyzPab1TgfvzjH0d3/BGYQQEMA2NYwmMGjjjcBiaDmF5GWI6P+XxDSB5MFQ/4ARYTFBpJYKICmECIpmSAWKNZc9l8Oj4daD5uWNl3Wd7mmDUecQifwSQvxwAdcw9wmDy0FB1PJwMaANHxpDObRKsBEtoErWXggM2zVrYxv/i6+G3ETCCAjnOI0ZrAhJvCNtcgMGEAOoJnmmhK4OKaaDz8MXxINCF1oe7UD83mJRb6A+CwStZujgGOgTPa7wTgwgychCAN1cliw2RAiK3ZfMwAhmWkazkfAzCfR8y5Ydlsk5d8hhDw0IDsAyfg0fHWamEcwmOAnGZYiDnmfbbDEOZH4wEWGo4OQGZOI2amyv1mNAgmD41DB6JNMJt0DECgEdBaaBGgw3ShqdBOaEZgQQOSF21HMGwGj33AI48Ds0u0ExMNtBrXpR6UDzxoLNZdgQzgycskgfOAjfqi9dBymG7qhnajbfQhbg3nWrvZrAL9aL+TAoftR5DWOHR+CIW1Uzoc4b63fZ5jziWE0HEsvIb3XUY6eOwDNnABIeXhKxlCm2CuwXGceWAAHJx633EARsOFEIHMsSEjDcgIhtHHyOv8yIvAdQCQba6D34kmw4eiw+hE/CYAoiPRWGgyYrQeEwk6HtgwkUwwABFHHbgoi200FABZI1IeppM1ScoHoD179kR+HHkJrK2xUEwdMI34YizZcB3AQvsCPtemvvhxaDbqyTncFsPyMbhwZ/AVQ3MKcJhjBsRov5MCxw1dhEanEug0Ot+gGR4DEe6HkIYQOW943OcRj5bOOWH6aNvUjXTisJ5oOz9kYBjxpzDNCAtTzAzTGstQGcD8/ILjoIXH8vJGFpANG/kLC0cmECPwjWg9gANQBgWdBRyYLzQIQBHwtehMtB1mErPJ5AHTSAA+TLEh5RjajvMoD3jY5jizfvJjHpk4YBLRYsxGMZE8+8byBucAGOegbakH5pSYpRHqSB7ugaN42Ebb8rg5cqZdDGDMKZMENBzQEWNW2QZ4fp6IGr6TAkdlKDTsTC4WAgQk6QCSZrDCbaeFwIQwpQPDMZftcx27DJfP/mjbIwOFW1leruEWVo3qGhrU3tGhadOmqm/SRDU1NqqGW19AW1Gp4qJi5eflRCEvL1u5udaCaEAWkn+qCQvQiPn5Ki4qUHGRJyojWtLajpjOQWvQcQxmzBqghdoF84opYlLgZRImEGyj/TCXxJhL4AEogEHD4Zuh3dBSaDaWPjCbLGHgf6H1yAvYNq1MXtBogEYezkVDsTrARADtCLyUx0SC/kB7M4DYZnYKXOTlPJtTzkeTj/Y7KXCMHnewTR8XYWaItsBJtwYhJo/zEwOB9w2D04EYmFHL1gKhiUKzorZpGOUYvPRy2Hdw2b4uMSGZjKupaeRNovr6BlVV10T/vhyL8+/K/GMyj8/XqaaaF0AaxD8yt7W2qrOTrwU1qO71BwtLS0tUUOAJBNAVKi8fDYZmGzGfhUUjr+Kh5WgXgXagRZEX96bpOKBjhkpHEnDUMZF0PtABIpoOwPC92Mbkot0wqQSWHThuX46YdM5nogCY+IWcT8AMs48/CNBoTSAEUm5BAhb1whyiEfHhGRiE9evXR7IENtpCvzBZY30PrQZw9uNYj+MJEnxAfny5IdRyPwOcD1JJzBGdbaAwRbxAM2PGjOg5KL4XhhB9T5WZIxUBSM4FBs43eIBGB2CeWJUPHyXCufY+xwj4P4AImJRBWQ7eN3COfS1g43qpFFqtOpq9FnOftSqlpoZatTTWqaWpTU2NbapvYLJRp3gipVgCSPkLysboP+ObGlrU2tKmLsxwc4OqU3GlkiMDqqysXPkFxcrJyVdWboFy84uO+4P2Bak7bUaGmHHAw9FGm6BtMGVoFzQeMmdmieYCLgDEnHGcWS1mypChCQEM0AiYXzQWgTxoLcpDm5EGXPhsaD18M54Cxj/DBHodDfhZc8PcMgDQosywqT8B4FAUAIfGBjRgxHwTKAufjpUEr8OdFjirQW4XARAdDDyAxMX5TD2LssxUWJTlvUTSeWHXi7O8YMsNfp4k8E10BM7IByTgCu81+p6jY8BzPtIMHo01xGHsberKNtAZuER85E34s3hq9zd+Q7/1f96msoIsNVdVqCleorbquDoaa9XaUKfWpsYoNDbUqbamWvz3eyIeUyUzb7QlPiHvXjbUqq21UR3trWptaVZjQ71qqmqUSiQjDcAg8cx4xL8rjOqFz0igjsgGmNBGgIFFAQ5AAkLMJOAxM8QsYiJx3gGTRVlMMSaSdEDE9AIJ9zqZPOCrARb+HdsEJgz4ZJhBZqYAhSYjcA3KJbCNpqLvrKmtrW11YADI0HJARkDLwQFKCE3Lj4d6UWJWZCfVcLzixeIvnYcZBSCm9wQ+q0Dg+SfAI4R3BrDh3AngnQcqgIplhISQAVV68MzRGg7YwjwcpxxrN5t6AxfuGzy0FfmzMsbqrN/8PyrNz9L556zRvnPXat3C6Zrd16IJrUm1VpWqo7pcXTXl6q4tV29rUuM669TeXK3GxmrV1dcoVVOreKpa8WRcsfjIux4MpPq6WjXx/1nNIw8yoPFZpGYAGHxi8lIv6unAoMVfZkmDGSqaAegAkU4jDQDRdphhZqvWQDj3AIVWxM/jlhYA4vgzmwQ+gGXC4BkpMaCxHMK5HKc8YGYAMDFAezG4cW0woYaNbQIrAbxUzf1rNBzB5hWrh+LBzwQynvo1dAD4M8BZw/3whz+MtBedxUN2aDIo5kLAxq0kgCOgkoEO0Hy7yWm8MobgQ+3lbQNl84mpRTOweAtc6ZrO+RAG9TJ4dKQ70NBF2g5z/vryS3bmWP3ft71NC2bN0De++Jy+9OLH9Pwnj+mZx+/RPUeu1DWX7NT+c5Zqy6KpWjqtRYNdVZrSEtPExpi6gbAuoQktDRrf1qS2lsbIvDY2jnw7LZFIKc4dk+NmfGSJxs/i4YrQEYDoRWssBnUdMfupSH50PuYTuJiJApHvOmA+AQvTCYjMRoGRvJhQgMU/w0yj4YCOstBYTFYwqTjyaEj8NrYxr4DGbS80GqBRH0BDxgxuXAJPFEhDw/GImlkANAe4oH0c+9a3vqWf/OQn4iZCaFZPChzgoXoZmWgqTCmwObAfggeA1nRoO8AjRtjWWNZWBs1AAReQhUsPbJPuvI4pixEHbCFcAGbo0CJRwMRWoVFSysnKiIBbuXiWXn3uI/riix/RN7/yWf3xN17St77+kn7/ay/pq1/8rF749Af0oSfu1nvefbUOX3a+Ltq2XJsXzdDi6R2a2VWlyc3lGt9Qoe66CnXVJ9TZVKPONm7Dcdtt5Fu91dU1Sti0J+KRSaa++G9AiC+H2WEg+7u5HMd1oTMxcZg+NA9rZ0CEn8YTNvh2DkwkCECIViRGs2CimSDYf8P0Yp4Bj0kAkHHTHsjoI5aKmNEjV2ADMvYNHKAR0G7Ilb5Fu9na0ffwwE181j+5Hcbn9FFaQHdaDeeXaZi50IlUyirUwDk2eDataDzys49vR+WBBLiAhmDTShpQEQAsnKnaD+JYOqgcYyTRWfhCQI3GwD+i06zxgDBVlVJtTY3yszP127/xNs2Y1qsnH79Pjz9wsx6755CeOnqHXn72Q/rEhx7Rx595QK997sP6gy89qz/63ef0ra9/Vt/4wqf1wic+oGeO3qUH332Vbrxspy7etkxbFk3X4mmdmtldq0mtSXXVV6i9tkxttQm1N9ertYWZMW+kV6mhvka11cziR2buFRWsF8ZVV4dvDIA//dwVfhMBd4aBTufiKzGTBEL8MiYc3LlgtommY1KAH0fA/GKi0WLMflk0Zn2OCQJmlnUzAAEy4EFjARnh/7V350FeVWf+x39TNZPFmMQlyTiOUVEE0QQVl8QoDf1duukNWgQRaKABEWQRETFoXBDZwcElCSZGjRr3zOAaMUTivo2Jayw1kzg6xolOqUms+fv51evbPsm100Qg6FApuurUud+733Pe5/M8zznn3qZk/Gy5BpCQJXyAo9JF10p9Ox/xARv3yTVfe+21ePfddz8YOHY3P0LoRrXIhC1ttQum4snTtKbCJXxaMdgAlpD1BFyqG5CA19V52tWnxcQmsAmefVSI6TEqxewRM0m8QUQ1zDwBIUXZt3fvGoi77vzZ+MTH/y4OO/yAuOu26+KJB+6Ixx9YG48/cEc8ePfN8Z3lp8ekoYfHnI5ynHnS8Fh93oy4+coV8eBd18czD98dLz31YPz6F4/FL59+OJ56ZF08sO76uPXab8WVF4FwZsybOiomjahGa93B8dX++8SB+/xT9Pni56LvHp+Lvnv+Yxy4717Rr+++Nfj79Nk/9t7bhwuNknSNlPitkjUWDce98501Ks8k8aMllep5PTc3RvmrE6qjrtSJOlA+/Cn7F/3KBIgYgApgqWaWbWfZJNttAxs4zdxxnQQtxYXLpXfCNZly/+7097//fe1Vwb+ocLnRJ1ZNqNMS8kHkkgcqmtAEjN/mBtyMYMGNggQw3aFJeKwHXA4xgSm7FEi833k8tbMvMMHF4VbgrksJJL89tIIB5YABh8UBBx4QO+/se21/H0cd2T/uuPXauGfdjXHjVRfG6iVnxPq118RtV18U115ydlx10Rlx8eKT48JzpseSuePivNmjYtHcsbHyrBNizZK5cdNlK2LDXdfGU4+vixefvi9+9ezD8eIzD8VTj2+I+9evjVtu+HZ8a9VZcfYpk2PW2PYY3XB0VA7/Uhy8356xzxd3i8/vslMcuP8B0UcAstefJjZkBWfOl7KclU+5gUgAOO2ZEk7bu7sVRWCAk/4YeCxTtVxWV3lN4Oe1AZiwaQTqN+s+BYa6aeTuTT8e8/7222//UeE26sNRN8CBTRLJaB1aj4tkygpWuaJRuZS0a3luOEHpKQcPcDwoafcwWkj24TkecPZzfOaAA6T7YrLBBbQMUsDuPqzT6oY0DInDjzgiPrvLp2Pnz30qevX6fCxYMDfW331TXHfpkhhROjQuXXFu/OLJ++J377wcf3jn1Xj95efj+Sfui8d+ekusv/XKmtJdsfqMuPDcabH09PFx3inHx8JTx8bKb0yJby+bG9d9d1n89M5r4qlH7oyXnr0vnvn39fHzh9fFzx+4I35yyzVx81VrYslZ82LAgb1jp099PPbrxcz7ekHX+LQKlpRDLnt+KSEAnuS3BK5UQRUNPGWXfqx9KJJcOQJHDjSJFZEs53mLoLl2wpjbuS9YUMYJm3KXKDOLJgo2extw3rzHUYrYn0WpNghjvTEtFyYjV+W5SF4IXNQlYUvQ7OdlCjeakCUocqqWvymawnGTzESajTQd/AEtMJUwjwOcwnMdYDOpImEF4PoJm3uT2oe2R13d0fGZXXeMz++5U+yy+w4xZsKwWLfuxvjXq1fHtBHlmDOuPa5asyJ+9KPr49a118QLTz0W//PbX8c7b/0mfvf26/HWm6/Ef738XLzw7EPxyH1rY8O/XRa3Xrkyrrpgflx87tRYctroOPPEppgzvhIXLZwbj25YGw9s+GE88egd8eKzP41Xf/mzuPnqNfHl3nvEZz/5sdifWtXM6vshKwKX4CUECR+Aelpne81n3WefGnzMsaQTlho6t2PVjaShp3oByvEATeWzr/WUUe6arAbgKFoCR4Q0fPvIjZKYTwk4QUOxW4Sg1aJUC0V18+lzSegs8lChKtcFnbSYqIjRB2ACCEj8tAQkwcscQJaB46H4Fsyj6+gwZgZFcR7cfrm/8znG+RWC67mu+0qVA1wNsvb22j27z7bW1hg8eGDs9IUd4wt9d409Dtk9GtsHxr/d/L245YeXxbWXr4zrv7MsVp1zcly66hsx7pjBMWV0Y6w8d3ZctGR+/Muir8dj9/4oXnjmkfjNfz4Xv3/rlfjf3/023nnz1fjtK8/HC0/eG49u+GHcecMlccXqM+N7qxbEPbdeG2tvWBPXf39FfH/Nwrj9hjWxZtV5cVCfPeMzn/iH6Ltv7+i3/4G1EQ0jIb0Kcw0TNIB0BxAU3VPuX4SxgeG8AAAd40lEQVRQ5SeYlCcth5wSSmmC7ZfwaeBUjxIq44QNiI5RvgBL8cnflE/QxgUTIb/55pu1/9+gSySBy+629wHH1gpjkenLNyIgoTOiVSS4VC4AwUfKtRI3yszxt6SETZ4JPLneMnAAZH/n8FCSc9kvQZPnOeTMsP2A6h4onHtzT3L3J4Gtqbk5Wlqao1w/MD63+6fjwNKX4sstB0X12LpYvezMePpn98Vv3nghfvnyE/HMkxviobtvjluu/mZcuOS0uGTRvFg2/8Q4YWR9nDS2IZbOnxJTjx8S31w8P26/6YpYd/v18e8Pr4+33/zPePed/453334j3vrtf8Uvnn48Nqy7Je778dp4bMPaePQnP4z777opFp9zWvTvs1d85pMfi359vGR0UK3rpPc++8a+vf40XasnyBIqsOUyUIq/i8DlevuALwHMY1yDGiZ4CWT6gI5P2Cw7TgMHGwvChILOssS0c3EEmb4p6DNdPUWofzSpqXBF4Eii3m5DIi7EjKbJEjTkVBSmDWxahVSMMHNZnhEowFKp5CACYCaAWZ+AFmGz3jUUgFalz0pwoiEAr5hq5ralJVpb2mLQoKOj1xG9om56ORpnNscVN30r7rlnbXz7slXx/RsvjQ0P3h7PPvtAvPIfT8Z/v/p8vPzyU/H8Mw/Gzx9ZFz9ae0Vcc/ny+MH3lsXys2fEmdPHxEXnz45zZo+JiccMjCVnTIvvXrIkVi1fGPc/cG+88OKLcee6O+PkGVNi2thj4se3/CAevX9dLDv/rDjowN6xy44frw2FHXLIYbHXF9+bTLq3t7+6pt2r9O7qlhAmSAld/i7mljeWukOZ+yWA1JBSsTCi/DTHgGKB0qVKv02uzAGtvJlT/wrJfywiWum/pbr1CJyd7CykNeNAjzWF47NRETn7Lfw2AKwDUYgOhFQ75jCXu0OYEWjCCERqlwlUoEwFTPjk1jmfAgIcEwy6BM1Dg68IIKUrleqiOro+pqyeFOOXjI2Fl58TF99yUbTNHhZHjvpaVCeUY/jUtpg0tyPOXvb1uPKGS2P9vbfGz566P379qyfj9Vefi5dfejz+44XH4tmfbYjH1t8cd998aVz97fNi9aJT4oJF82LccW3ROXpUnHPmWTFzxowoHfmVGNtcjrtuvjJ+uv6WuOzSi+LIw/rHzp/6+9ow2dFH1cW+vQQLe8ZeXzQXsCsyTJXhniR41iUsmduWoBUBTIjkqWiZb2xb8fhUQ/u6hmOtA5x6B1n6yYSIpbGf0QUCxZxmd0h3c/pH4Cx09+H+8Ic/1Jw/sxREHkxrRqtIt2z+k15lY3McVBABDXCZmMju8CVscgAVYbVOShCBRuXkkvVanEAjgaNyoEvgaua0qSmampuiobkpKpXBMbKzKc69bE7Mu/jEmLF4fExceHxMXD4+xi3piPazjonG01qibmopvjr+6Pja2IFR7qiP9smtccKp42LBivlxzY3fiZ/ce1s8/dwj8fKvno7XX3s+Xn/9+Xjh+Yfj0Qfvinvuvi2u//6Vcfma78ayRYvirFNPiWVnzo31t10Xd9x+XcybNyMOO6Rf7PCJ/xd9+/WOlpbWOPzwQ+PL/fvF/n36Rq+9/+SzqeyEIKFL0IrrEyD75PY8FiiZrMtlef4u5t2P47bw7dQj4Ax7AU7ds3TAk7s210qnNHP61ltvBXZyhKEYob4PuIQuzaqQlh+nA0+Yi1492WTTjFXjb/pc8stIKpkCuclMqXQJX/4GYIImT8i659RQSnOcKqjFCy5MkxI4gM31EzR5c1NTzdw2NbdGqVwfraOqcda35sTpq6fGvOWTY+7S8TF3eWfMWTY+Zq+YEDNWjI+pKyfElJXjY/zSMTF84XHR8PXW+Nq0QXFox1fjK6OOjEHHD4qhk1pi8twJce6y+fGD6y+NRx5cFy8893i8+uuX4jevvRJesXzmWR9PfDQeum9d3PvjtXHb2mviqKMGxG677xI77vKx6HNA7xg6rD2aW1qivjwoBh51VHzliCNqJkzD9XwJA0BUuJR+bnZXKMcsM+WofO2TxyRkxXMlcAlYMS/u53oZzVpmxVLhwGZZpzJfT8+C0Q/mNLtDEjhCVvx731hqqhzoRBhpWp0EeMJd/8DLP2U1KdBgsTnxxueM/1EgiubBs1AyAkrlsz2T/Wz3u6hyloGW6xM8uW3Wa1UKIUFL2KhcDbj3FK9lSFsMaWiOAUceHMNPbIupCybHjIVTYvbiyTF30eQ4bdHE+Pqizpi3sCNOWzQ2TlkyOk5Z2REzLpgQ0/5lQkxeNS46L5gQY5Z1RPuCEVGe2xRHnlgfA0Z/NQ4bcURUOspx3NQRMX3eSbH8wmVx223/Gk888Ui8+Kvn4pXXX4qHHvFm+4LYa5/dYuc9dopd99s1+vbfL1qb22Jo+/BoHdoWbS2t0dLcNcWLkugq8nx8qlQ0FcvV4NvmaA1/1xv+xY/qWGc/ICrzBDDhKwIHsEy53e+E2zXVkW3KOkGjcpKuK+fn0xvDfeONNzYanSZ07wOuqHLsL0p1j1A7dplcstFINjhLQs1qMGbHxCYMCVIqnfXFbWBUGFLuI7feQ+a6hDb3zXPIwacy+BDpx2UEnX4c+JoaW6K1uT3222ffOOiQftE2ojnaRrXGyM72GD1tZEw4eUxMmzchZp89KeYsnByzF0+K2cvkE2LO4s6Ys2h8zFnSGScv64yZqybGtFWdMWnlxOhcNSlGLx0fbWcfF5W5Q+OoKdU4dMzRceTYumiZ1BqdsztiwbLT4+qrLo4F58yJo6tfiX2O6ht7HN0r9jt472iqVOOY4SNrSnfMsPY4pr2r45yP7L49k8iPeujCAFqCBbL8lETm3bdZn91TGiiIMiV0yi+X5bZnXlRT+1EzqpZmVRAJTo2COfXZDtEpc5rBQnd1w9efAZfQZSewg4GnMxh4TkjxqJ0PTzMhBpEVEFAStiIszAQnX8s1NqgVc0LdLHAAZf+ELoEDnwdPCJ3bQ2r9ObFTp6aIynlzMF/kXK1Uo7mlOYa0tkVL2/Do1/dLtVm7zU0t0dDQFNVqORobqtHY1BCNbQ3RMmJIHNc5PDqmHheTZo2NE+aPj5nnTYnZi6bEqUsp4sQahKcsnhCzzu+IOcsnxskrJsbMVZPjxJUT44QLJkbH8o44dvHxMewbx0ZpekPUdQ6KFZcvjMd+sSHOu/js6H/s4dH/+AHR9/A9ozJ4YAw/dmS0G5IzUvMecPwi0KlQ3TwiRapV/F4JkDIBqwhbjltnbpt9uSXKMYEqKpvlXJ85+LLc+WlcFwonCRoAqD64NqarG6zHRUanYNtk4BK6ooktgqePhdq5CPNqdgIIiq3CzWhZxmJFt5myz0zBWpfBhn2Bl8B6WBBKtjm3c5H2os9G1SgaVVAoFEEl1WZdHHJwHDzgkDhkwGGx2267xyEDBkRzi45qs5MborHSEI3Vrs9IVKuVqFTLUa34nEQ5KkNK0TqiJY7taI/jTxwZHbOOiylnjI+Tzp0UM5eeELOWTIqZiyfEyUs7Y/r5o+PkpWNj1tKxMXP5hDhp2YQ4YemEmLi0MzoXd8ap3zw1Ohd1RtPpjdF0Ujn27veFqKv7WgwbfmwMq8HW9dkKZSKBjZJolAKmVCsQ5TIIqV7m2X2UIOa+CSTwQJdlmmCBLZXOumJS5uqDTykwA1uaUw0dlMbWMzrl87OIrONmAwe64h/F49s5mZPqa6FyzKqpM27OzWfL4EOIJIXLCi9By1wrMXHPNsdROmB5wISO0lmnYxJQKsPx6a/JwQY6ye/MQakVqjTKajoTE6WzuKFarcFZW25oiIaGxtp6EDpGqlQaor6+HKVyKQaX6mNQdVDUN5eiob0h2se1xZgTR0bnKWNiyvzxMWPBxJh5/qSYuWhCzFo0LmYsHBvTzxsTMxePi+mLO+KkpWPipBVjY+Y3J8aomU3xj/+8Y9QProuW1q7GMqytq7spgVM2GiM4EjAgJUSWwcZn5q8BqRhYga87eIBzvIZc7GZJM5qg+Z3r5O7B/spTXekKocAg1V/X3ZzmhEu89PTXo0ntaUfrEjrmFc2cRBMDVVAC58aBwlx6ycIkTi0DCFnBWotWrC/PW0yUKYGjcgkeX41jalqUluSY7GNzLufJLpEMFBRMzXfjv70XQBR9Osflfbhv1+YOFFMNuIZqlGvrq1GtNEZDZUiUBlejvq4cgwYOjvpB9VGqlKOxrRqtxzXH8M5jYvT042PcnONj8vyOmHHOxJi1YEKccl5HnLpwdJy6eEycccn0aBtTF7vu8vForJSipaUt2lqHxTFDu8Z9PZ/KBJ5GAjYKBp7MQWO5e1dRQicXzWdwAbSEzfmUb7oerADLxEeUUu3k6hFw6lKfoDLUHytAUGa2szasm6/eZ2dv9r31ZE4x9FcBJ4AwB5+SuYGUZjdpfNRLG2Bxs4DQQnJOXaoe4IzBUbU0qbmsZdlm0iApT/XS+h0PQpMTgeu3Cst9EryEUp6QFqFL4ECmAIEnL5fro1LpSjUzWypHZXApqvXVKJe8udYQpfpq1NeXaj6pLhqAlhor0dDSGENHDYuRE4+NsdNHxfg5o2PqWRPjtPNnxcFH9I0dd/hYNFQq0dpmjLqlph6U2/0ndMoSIGk2E7hULuoGrCJ4flM8yXb7OocEVODZRvXVh2e1zOdVhwIw7gjl0tfpHigcGBM4Zc0f5woRFNPdc+yUELGCG4Nts4FzIidMhXMhs035TVpFdkC6SQ9jxjAQQGMWqKnO9vcpAVOn9eWZiQocapamlOyDT8V7RxJUVNJ++v28SMJRdS4vAJv9as6+t5ac07fQdEqTfxUJvgSuCB3YgFZTtErlj7l7599V6stRri9FqVyO+nJ91JcGR6kkr4tyeXBUKuWogLRkv2pUyo01GKvlIVEuN0aloTGqzQ3ROHRItB7bFiPGjIzefXrHp3bYMSqVIdHc2haNzU0xpHlIDQCVCjiOODASsmJuWaJkyozrknmCBryEMc1w5iA0LkpJ06/WSFmDbKTKA4TAUxeAAyhTL7FeoFPWolP+PL8+zelWBS59OCYVcObOqzitIRP4jMkZbzWgq8PYi7he9GCCvfShZUj68AwipxmljsDzUEYxAEcVfbLAu5aO95C6Zfy3ukz6B31J08sbzk95QQl048GG4fiMKlTBpqJ1qVm51omc60qlcoCmWm6KKlNarka52lBLfLpKeVBUyuAbHOVyKcrVSpSq1Sgxwb5hV65Ew3sByZBqYzRVG6K5Uf9gW/Trd2DssMOno75UjqbWlhhSq+iuylbx/ExlkCYxFa2Yg4m549uCQpTOPHLkWQXlB0jqlwqXKue8gAO362VEXFTXbKSExHUAlz608mLNlBVzmp29/HqB5VZXOMBROP1yXiXUAcwsgkwCHaXj0ykIFS6KAYqxWckbSF740Dut5YBNISdsWixV89qb19a89GF/kImMXRfs+n0y6ZiW+JVSdlLruvHyiY5J73561c7LKZSSClJOhakgmRfDZbptylSrZlrlpRqQ5VKpS9WqDVGpNkapVOlK5cp7/h5fsL4W5WqENTVt6npfVwU1Nw2J/v2/HJ/85CdiYN3AGDpsaAgYhrZ0zb4RhSsLUPQEXPpvylcQRGUA6n7dt2XK5DygS8jkgHU8FbSPZwZdApfRMfAyMOMWAY55VU98OP4fAIkJEcnOXkyk/7axGGCLTSrpTOC8QcREqhwPCTitTCsAkIIxBMbcAUzyIogXOvgL9mGCHSsJHhSe/b3i5p1KsL7yyis1iABGXUm4fsFiss592c6JtS8IAaolShSRQnrbydwt9+6Nc0pMBfkoCryhoSvCHTjw6Bg0qO49EKka+EBYjRLQ3vP7rGeKK7XuFXk1GgU1TV2BTQY3hx46oAacYMj+9YMHx6EDDq2VGxioUppN0KU5TYXjh2mQlI3pdd70W0EOJkA4tnvfHeAcC0z7UnpmNaErqpxzAo5wsEDKBJSWQWdSR7GzV1/tB6nbFgEnUnVyHcAqk3owX0YbwJUqBzitgw8AKhCSfKZW1JPRqG25rHWLzvKbsl7U1anMXFIsEAGMfIPefWTKfkLrbdcBmR3VCSFfA4TUUcsEIsWknAqPWhs58RKId0SZ4qlTp9UCluZms07KNfBURF3dwJoiUkUK0wViVwCRyqhSU+koCpXwfKleOfwEtKLDb3sRvFSnYq5hKlvqw5IAWLlan/6aPEHNYx3DVLpHsCZwoMsELsB5tjTdtnkG9QtUPnOaUw1dPWDjL/lvmw2cE0oqV2WqQBXlxVsJKArUTXkwyiW56VSyYm4fkGl1zIRK87a4KU/GaEFsJANs2YsNqPQV8n7kWlcx2SdTQghE911UwhwnTjMsxKeCIHRtfqcZMwqY4gpydPVwnlWYSqEYEhDTJFufEMpTUUBHmZQR9cooMyETXVrOKBSIuc7+ILLdenn6aAlZdoH4LXVXSIpFodyfe2JWQQeyBE5uvWchHCJS6uc4gHt+1kGZacwZnaqHD/rbrG4R9EoqUuVRHApBhVSITw+w80wlh9aNanUesqhioFPgbl7S4nR7ML38Qd0pAgYvAGtFwAZKgtZTK8p788CWu8PIv0gAtUYQKqiiEqYpdj3qTQnTHHtO/iAXgk+a/mB+HkEHt0rjt6lMpk2FWU4FBKh9RM/KSTeEckl3QsOjehltpjoBSwKnBDZBQXZ95H4JV+bF9Y63XiMnCu4pgXNPReAsJ3DqjlWyTp0KOAhC0Zwqy00xp5utcFmpKs9F0K1SqIBPPfnAioLMDkW5G+TE8jncOLPK9FqnxZBn0aMgwdd3dKH4Lhm/yrQoFc98F53SnoDbWMvKe848QVRACWGaZdcoqqDrgpAKpikGIMVNJcyZMz7DYPZMTt3iD+rGUVEqtggdBfHMnlX5gI4lSPUHheVU/4QLbAlOQigHXiZQZUrg5NY5nrVxTQ1B42A63WMm90bxAGcf+6svQQ//XH15i9/zKxdCkOZ0Y3VQXL9ZCpcHqiwXYZpcVOv3tZ/86g6QOK66NiicZc5mKprczfM7OKIqJqETOfLdOPUkO3uwi+q2JcDlvSd48oQv8wTQtYoqmD4hACX3VISwaI4FN/5ZiWjch5t9J803PHTveDbPqzKpHDWXlBOVK7ohgPNbUum5nIEVCFMJu8OXSpimOIGzn+MpKxdA0AIgZh5kEgAl96iRuDbhcIw61NmrcRGCNKfKbVP/tgg4FaRSVAQFYIKMqVI53Q0eRJAgAQ5cTGgmfoFtTI6CN7XJkAnfQFRKMVWiSmXyqKmHSlg29eE2db88b4JX9AU3poTuS4MrqqByKCphqqD+QaZYn6UoXYRHzc2iNls6I/yESg64TLk+TW/CmD6y9cxx+nUAS18v4UslBCrA+ZEZYVPgDGqYfQmICRxhIBKEhDnV1+k5U92U0ab+bRFwKihVTsGDjmll1ymd1pzQpe9WLDx+ARPrwTjfuiKAajYxR53ZSrlO2MDgulv7L8+ZufPntaxLCDNPAFMNKSFTnP5gdwhVDDXwTIIRfqBoWHeMnnpWgcKDRrkkXMXySnNbLEvKk/tnnvs5F19QxJpdLYBjVuWg0+D5cqADG8AkdcLUWqaCxCGtlf2ICoumfghOCsGm1ssWAefkKqMIHTOjYLVq5tDogg5bvpnoTSsxUMwf4FCTbduMIBjmomoeBLgeRsUVYdvUB9rS/TxPEbqNnSf3SwDlykHqyRRTgVRBCgg8ETCL4HNb3v1lpkDDAqjgtAiWrQdfmtVUtQRTbpv1uc4xUnGdZcACMOGz7NyA4lOrF0IBOiaV38ZCgVP9sUTuWR0xp1k/m1JuWZ5bDJwTKOxs6Wh3E2ABHsc6uxYMYWnRIlnfJ+N0UkJ9XkwN0BxDDagl2ChG0W/LG95W8gQvC7sIoDLJcqGAkvLxXJ4PdDkCog+TyoMGaPJMIElfV6PlxMuZQxbCdoEFaCzncfKENeFLAJlTPpnBeoDpIRBEAAp4uqfsQxyMZGgEzm2Z5fJlVPWkEXkuDS3LYFPq5q8CzgVcLFu3Qi226IQPTHwyBU0BdXX4bb2k5RdB03LAphK3tb8Erft9ZaHndnlCqHwA6LnSBVEOIlyBhYqnTuCSwMIssgYsgT6w7CMTTQo8pHRbmE/QOUcRsATQucCkPzCDgwwQ5M7vfK5F1fhuoNat5Ryg85sa64RXX57DM3nGfPbuZdLT778aOCfNwk3wFGwWrpZA+QAlMb2SZettd/NgzRbjPNsibD0V4Aety7LxPJ5LuXhujY+y+0ggRQFaBlWgARtTK3oHAzCYuQRQsGU8Eyz2B1xCVzStzCg11F0lMAOuqDQTXy2X+WjMqdy1qBr4JYGFDxwSCnXHAiVwH1QGxe1bBTgnVLBStmYKlT6NmwNUMVknqQCgufkiaM71t/KX0HlGz8q0UnbA+Wo4YJgy0FEUv5lZXSY6xMHGkc+oEiTW6Ww2uYF5FKVSMuYvAWRu9X2KiMGbKgYqAFGzBAx0lvO3azC3YHNOx/v8K3VL/1p9bW49bTXgErrM05xky1bYG0s93fjmPsi2Dqfn6Q4cH9foCshS4XLZ5AafS6No1EYkbyKq/VW+WS5UyxRvzjwlS1/OuSwDT9+f8yS4TLLjvNZpRMdwpMDNkKJpYMBjqtO0Gl3g31FirhB1JhyeRd1ubj1tVeCy0t2ElDeUea7PbdZ335bn+FvMNaxUOJEe4IyqJGRpUqmd90T0SxqNMLvGWLXJpgItE0+NxOhKMgTIvFK4DBwAx6/Tb2YSrN4A5tT+RkL0IAjkdE5TrfxOsI8X2Q5A1wU2yE1k0JnNlPLRWSXAZX1uTl19KMD1dAObcnP2+Vv+07gSOL4Q4HQdAYzpApxlOfNJvYzZ+qKkOYT5L5B0IRnP5VPpxzNcyJzy3dIk+214jclmUn1O35xCw4X6A6mVpDchh+qYeEFBjpSYyGo2kP3Alr0HRXXb3Dr7yID7WwZpU5+tO3CiVKqig5U6pcJRKInKiGLBRo10GINOss6kCcqV0ancOXT46kKhVkylSaf6/YAGruzrBJGUQ3X8M0nvQjG4E9ilsmVX1aY+c/f9tgPXvUQ+xN+AU2GUQqUDjoowe2kOKRS1k4NHcOBjQiYGMKeS8VmmlAo6LoFzHGVzrOGznMRq9Cb7OtMs6hnIoC2DOeuAVUy5XzGw21xVKxbpduCKpfEhL6sowKlQSmKMNTvFRaVgya6NNI1+M7OmfFEtaqibA4wJmuMECAIHifNP3cxiZnYTNg4/yBIeprF7yp4F+1jOlL525ltaVNuB29KS24LjAKeCKQqTBQQzL4whe5lI5GkYqRgAAItygSsBA1eqoGXAMaMgFYHy66iiWSoG2rv3nbmH7IJyTyBKkHJZnr0H9pG2xt924LZGKW7iOVSaSqQyTBsQvK9hqA9wuiiYUJ2+GUgAKtXOsgQ8ppSaJZzGQimb4SezpU2PF43y2fhkVJVaFUFLkDLPx8jf8q39tx24rV2if+F8KlCF61bgxxmTNKbq9UfRqu4I7/HqyNXLb2jJtCDjmiJRfWKCCQBSPsNV9tNXp19NH52O4Hnz5tXeTKNuTDdT6ppFxfoLt/mhbtoO3IdavH9+cqaK0qRZNcSlm0NfF3XS9wY4w13MawJnxEAHLP8NfKYWGRtlho046DPLOXbeu9BnJzChpK7lmq79f/23HbiPuAbSN0qVM8Slu0L0ycmnVEYWQEXFpDSpqWymDAkijHny2XLGtHFXowc6hk0OSFOaQcJ24D7iyt4WLqfSpQwemLuETp9bfsTblO7usDGnFA9shp+MjTLBEpUze9isYh21YMuo1LVc88PwyTa3TLcr3OaW2FbYX8UDgPIwd8we6ICig9eoAPMILMGBQXiBAh+Oz2b6EHUzLkrV/Hdn79KaqyYQ4bfprHXuhG0r3PZWOcV24LZKMW7+SVLlEjqAAIVP50Uc0SuITEM34iAC5ad5D8L4qwBDZGtiq/FQ0agghLL1NAS1+Xf44RyxHbgPp1w3etaiWcuoNYMI0OmfAx6HH0Tgo1yGtQQXxkMNbRnvtA2g1NFxTChVy07bbSEq7V4Q24HrXiIf8e8idEW1Y2aBB6ZMIJT8pma2p6+mn03/Xve+to/4cT7wctuB+8Ai+vB3SJ+OIgFGBAseagUkJpL6SZYz5UzpBC39tTyffFv72w7cNlIjCQnoJPBIAKR8xQTINJsbUzTn2xaB+/8LyZYAOmto2QAAAABJRU5ErkJggg==;" parent="1" vertex="1">
          <mxGeometry x="724" y="375" width="96.89" height="100" as="geometry" />
        </mxCell>
        <mxCell id="PQfR5SoeLuZi49ZC78cG-14" value="&lt;span style=&quot;font-size: 13px;&quot;&gt;&lt;b&gt;LiDAR scanner&lt;/b&gt;&lt;/span&gt;" style="text;html=1;strokeColor=none;fillColor=none;align=center;verticalAlign=middle;whiteSpace=wrap;rounded=0;" parent="1" vertex="1">
          <mxGeometry x="712.44" y="490" width="130" height="20" as="geometry" />
        </mxCell>
        <mxCell id="PQfR5SoeLuZi49ZC78cG-15" value="&lt;span data-end=&quot;54&quot; data-start=&quot;31&quot;&gt;Scan a room at 360°&lt;/span&gt;" style="ellipse;whiteSpace=wrap;html=1;" parent="1" vertex="1">
          <mxGeometry x="500" y="450" width="130" height="60" as="geometry" />
        </mxCell>
        <mxCell id="PQfR5SoeLuZi49ZC78cG-16" value="" style="endArrow=none;html=1;entryX=1;entryY=0.5;entryDx=0;entryDy=0;" parent="1" target="PQfR5SoeLuZi49ZC78cG-15" edge="1">
          <mxGeometry width="50" height="50" relative="1" as="geometry">
            <mxPoint x="710" y="440" as="sourcePoint" />
            <mxPoint x="480" y="430" as="targetPoint" />
          </mxGeometry>
        </mxCell>
        <mxCell id="PQfR5SoeLuZi49ZC78cG-17" value="" style="endArrow=classic;html=1;exitX=1;exitY=0.5;exitDx=0;exitDy=0;entryX=0;entryY=0.5;entryDx=0;entryDy=0;dashed=1;" parent="1" source="PQfR5SoeLuZi49ZC78cG-8" target="PQfR5SoeLuZi49ZC78cG-15" edge="1">
          <mxGeometry width="50" height="50" relative="1" as="geometry">
            <mxPoint x="430" y="480" as="sourcePoint" />
            <mxPoint x="480" y="430" as="targetPoint" />
          </mxGeometry>
        </mxCell>
        <mxCell id="PQfR5SoeLuZi49ZC78cG-18" value="«include»" style="text;html=1;strokeColor=none;fillColor=none;align=center;verticalAlign=middle;whiteSpace=wrap;rounded=0;" parent="1" vertex="1">
          <mxGeometry x="450" y="490" width="40" height="20" as="geometry" />
        </mxCell>
        <mxCell id="PQfR5SoeLuZi49ZC78cG-19" value="Scanning in elevation and azimuth" style="ellipse;whiteSpace=wrap;html=1;" parent="1" vertex="1">
          <mxGeometry x="540" y="285" width="130" height="90" as="geometry" />
        </mxCell>
        <mxCell id="PQfR5SoeLuZi49ZC78cG-20" value="" style="shape=image;verticalLabelPosition=bottom;labelBackgroundColor=#ffffff;verticalAlign=top;aspect=fixed;imageAspect=0;image=https://www.lextronic.fr/29563-large_default/servomoteur-feetech-fs5113r.jpg;" parent="1" vertex="1">
          <mxGeometry x="712.44" y="190" width="120" height="120" as="geometry" />
        </mxCell>
        <mxCell id="PQfR5SoeLuZi49ZC78cG-21" value="&lt;span style=&quot;font-size: 13px&quot;&gt;&lt;b&gt;Servomotors&lt;/b&gt;&lt;/span&gt;" style="text;html=1;strokeColor=none;fillColor=none;align=center;verticalAlign=middle;whiteSpace=wrap;rounded=0;" parent="1" vertex="1">
          <mxGeometry x="712.44" y="320" width="130" height="20" as="geometry" />
        </mxCell>
        <mxCell id="PQfR5SoeLuZi49ZC78cG-23" value="" style="endArrow=classic;html=1;dashed=1;exitX=0.5;exitY=0;exitDx=0;exitDy=0;" parent="1" source="PQfR5SoeLuZi49ZC78cG-15" target="PQfR5SoeLuZi49ZC78cG-19" edge="1">
          <mxGeometry width="50" height="50" relative="1" as="geometry">
            <mxPoint x="430" y="460" as="sourcePoint" />
            <mxPoint x="480" y="410" as="targetPoint" />
          </mxGeometry>
        </mxCell>
        <mxCell id="PQfR5SoeLuZi49ZC78cG-24" value="" style="endArrow=none;html=1;entryX=0;entryY=0.75;entryDx=0;entryDy=0;exitX=1;exitY=0;exitDx=0;exitDy=0;" parent="1" source="PQfR5SoeLuZi49ZC78cG-19" target="PQfR5SoeLuZi49ZC78cG-20" edge="1">
          <mxGeometry width="50" height="50" relative="1" as="geometry">
            <mxPoint x="430" y="460" as="sourcePoint" />
            <mxPoint x="480" y="410" as="targetPoint" />
          </mxGeometry>
        </mxCell>
        <mxCell id="PQfR5SoeLuZi49ZC78cG-25" value="«include»" style="text;html=1;strokeColor=none;fillColor=none;align=center;verticalAlign=middle;whiteSpace=wrap;rounded=0;" parent="1" vertex="1">
          <mxGeometry x="585" y="410" width="40" height="20" as="geometry" />
        </mxCell>
        <mxCell id="PQfR5SoeLuZi49ZC78cG-28" value="" style="shape=image;verticalLabelPosition=bottom;labelBackgroundColor=#ffffff;verticalAlign=top;aspect=fixed;imageAspect=0;image=https://images-na.ssl-images-amazon.com/images/I/61xmtdTOkrL._AC_SX425_.jpg;" parent="1" vertex="1">
          <mxGeometry x="730.44" y="524" width="94" height="120.99" as="geometry" />
        </mxCell>
        <mxCell id="PQfR5SoeLuZi49ZC78cG-29" value="&lt;b&gt;&lt;font style=&quot;font-size: 13px&quot;&gt;Remote module&lt;/font&gt;&lt;/b&gt;" style="text;html=1;strokeColor=none;fillColor=none;align=center;verticalAlign=middle;whiteSpace=wrap;rounded=0;" parent="1" vertex="1">
          <mxGeometry x="724" y="660" width="100" height="20" as="geometry" />
        </mxCell>
        <mxCell id="PQfR5SoeLuZi49ZC78cG-30" value="Remote communication" style="ellipse;whiteSpace=wrap;html=1;" parent="1" vertex="1">
          <mxGeometry x="525" y="570" width="120" height="54.99" as="geometry" />
        </mxCell>
        <mxCell id="PQfR5SoeLuZi49ZC78cG-31" value="&lt;span data-end=&quot;87&quot; data-start=&quot;57&quot;&gt;Deploy the device anywhere&lt;/span&gt;" style="ellipse;whiteSpace=wrap;html=1;" parent="1" vertex="1">
          <mxGeometry x="320" y="557.49" width="120" height="80" as="geometry" />
        </mxCell>
        <mxCell id="PQfR5SoeLuZi49ZC78cG-33" value="" style="endArrow=classic;html=1;exitX=1;exitY=0.5;exitDx=0;exitDy=0;entryX=0;entryY=0.5;entryDx=0;entryDy=0;dashed=1;" parent="1" source="PQfR5SoeLuZi49ZC78cG-31" target="PQfR5SoeLuZi49ZC78cG-30" edge="1">
          <mxGeometry width="50" height="50" relative="1" as="geometry">
            <mxPoint x="430" y="540" as="sourcePoint" />
            <mxPoint x="480" y="490" as="targetPoint" />
          </mxGeometry>
        </mxCell>
        <mxCell id="PQfR5SoeLuZi49ZC78cG-34" value="" style="endArrow=none;html=1;exitX=1;exitY=0.75;exitDx=0;exitDy=0;entryX=0;entryY=0.5;entryDx=0;entryDy=0;" parent="1" source="PQfR5SoeLuZi49ZC78cG-5" target="PQfR5SoeLuZi49ZC78cG-31" edge="1">
          <mxGeometry width="50" height="50" relative="1" as="geometry">
            <mxPoint x="430" y="540" as="sourcePoint" />
            <mxPoint x="480" y="490" as="targetPoint" />
          </mxGeometry>
        </mxCell>
        <mxCell id="PQfR5SoeLuZi49ZC78cG-35" value="" style="endArrow=none;html=1;exitX=1;exitY=0.5;exitDx=0;exitDy=0;" parent="1" source="PQfR5SoeLuZi49ZC78cG-30" edge="1">
          <mxGeometry width="50" height="50" relative="1" as="geometry">
            <mxPoint x="430" y="540" as="sourcePoint" />
            <mxPoint x="720" y="597" as="targetPoint" />
          </mxGeometry>
        </mxCell>
        <mxCell id="PQfR5SoeLuZi49ZC78cG-36" value="«include»" style="text;html=1;strokeColor=none;fillColor=none;align=center;verticalAlign=middle;whiteSpace=wrap;rounded=0;" parent="1" vertex="1">
          <mxGeometry x="460" y="600" width="40" height="20" as="geometry" />
        </mxCell>
        <mxCell id="PQfR5SoeLuZi49ZC78cG-37" value="" style="endArrow=classic;html=1;dashed=1;exitX=1;exitY=1;exitDx=0;exitDy=0;entryX=0;entryY=0;entryDx=0;entryDy=0;" parent="1" source="PQfR5SoeLuZi49ZC78cG-7" target="PQfR5SoeLuZi49ZC78cG-15" edge="1">
          <mxGeometry width="50" height="50" relative="1" as="geometry">
            <mxPoint x="430" y="540" as="sourcePoint" />
            <mxPoint x="480" y="490" as="targetPoint" />
          </mxGeometry>
        </mxCell>
        <mxCell id="PQfR5SoeLuZi49ZC78cG-38" value="«include»" style="text;html=1;strokeColor=none;fillColor=none;align=center;verticalAlign=middle;whiteSpace=wrap;rounded=0;" parent="1" vertex="1">
          <mxGeometry x="480" y="380" width="40" height="20" as="geometry" />
        </mxCell>
      </root>
    </mxGraphModel>
  </diagram>
</mxfile>
